<svg width="23" height="21" viewBox="0 0 23 21" fill="none" xmlns="http://www.w3.org/2000/svg">
<path d="M11.4999 5.29167C11.4999 4.1866 11.0609 3.12679 10.2795 2.34539C9.49813 1.56399 8.43832 1.125 7.33325 1.125H1.08325V16.75H8.37492C9.20372 16.75 9.99858 17.0792 10.5846 17.6653C11.1707 18.2513 11.4999 19.0462 11.4999 19.875M11.4999 5.29167V19.875M11.4999 5.29167C11.4999 4.1866 11.9389 3.12679 12.7203 2.34539C13.5017 1.56399 14.5615 1.125 15.6666 1.125H21.9166V16.75H14.6249C13.7961 16.75 13.0013 17.0792 12.4152 17.6653C11.8292 18.2513 11.4999 19.0462 11.4999 19.875" stroke="#0CBC87" stroke-linecap="round" stroke-linejoin="round"/>
</svg>
