<svg width="25" height="25" viewBox="0 0 25 25" fill="none" xmlns="http://www.w3.org/2000/svg">
<path d="M16.6666 8.3335H10.4166C9.86405 8.3335 9.33415 8.55299 8.94345 8.94369C8.55275 9.33439 8.33325 9.86429 8.33325 10.4168C8.33325 10.9694 8.55275 11.4993 8.94345 11.89C9.33415 12.2807 9.86405 12.5002 10.4166 12.5002H14.5833C15.1358 12.5002 15.6657 12.7197 16.0564 13.1104C16.4471 13.5011 16.6666 14.031 16.6666 14.5835C16.6666 15.136 16.4471 15.6659 16.0564 16.0566C15.6657 16.4473 15.1358 16.6668 14.5833 16.6668H8.33325M12.4999 18.7502V6.25016M22.9166 12.5002C22.9166 18.2531 18.2529 22.9168 12.4999 22.9168C6.74695 22.9168 2.08325 18.2531 2.08325 12.5002C2.08325 6.7472 6.74695 2.0835 12.4999 2.0835C18.2529 2.0835 22.9166 6.7472 22.9166 12.5002Z" stroke="#0CBC87" stroke-linecap="round" stroke-linejoin="round"/>
</svg>
