<svg width="20" height="20" viewBox="0 0 20 20" fill="none" xmlns="http://www.w3.org/2000/svg">
<path d="M3.20825 7.18358C3.08662 6.63568 3.10529 6.06595 3.26255 5.52719C3.4198 4.98844 3.71054 4.49812 4.10781 4.10168C4.50507 3.70524 4.99601 3.41553 5.53509 3.25941C6.07417 3.10328 6.64394 3.0858 7.19158 3.20858C7.49301 2.73716 7.90825 2.34921 8.39904 2.08048C8.88983 1.81175 9.44037 1.6709 9.99992 1.6709C10.5595 1.6709 11.11 1.81175 11.6008 2.08048C12.0916 2.34921 12.5068 2.73716 12.8082 3.20858C13.3567 3.08526 13.9275 3.10267 14.4674 3.25917C15.0074 3.41568 15.4989 3.70619 15.8965 4.10371C16.294 4.50122 16.5845 4.99281 16.741 5.53275C16.8975 6.07269 16.9149 6.64344 16.7916 7.19191C17.263 7.49333 17.6509 7.90858 17.9197 8.39937C18.1884 8.89016 18.3293 9.4407 18.3293 10.0002C18.3293 10.5598 18.1884 11.1103 17.9197 11.6011C17.6509 12.0919 17.263 12.5072 16.7916 12.8086C16.9144 13.3562 16.8969 13.926 16.7408 14.4651C16.5846 15.0042 16.2949 15.4951 15.8985 15.8924C15.502 16.2896 15.0117 16.5804 14.473 16.7376C13.9342 16.8949 13.3645 16.9135 12.8166 16.7919C12.5156 17.2651 12.1 17.6547 11.6084 17.9247C11.1167 18.1946 10.5649 18.3361 10.0041 18.3361C9.44323 18.3361 8.89144 18.1946 8.39981 17.9247C7.90818 17.6547 7.49261 17.2651 7.19158 16.7919C6.64394 16.9147 6.07417 16.8972 5.53509 16.7411C4.99601 16.585 4.50507 16.2952 4.10781 15.8988C3.71054 15.5024 3.4198 15.012 3.26255 14.4733C3.10529 13.9345 3.08662 13.3648 3.20825 12.8169C2.73321 12.5163 2.34193 12.1004 2.07079 11.6079C1.79965 11.1155 1.65747 10.5624 1.65747 10.0002C1.65747 9.43807 1.79965 8.88503 2.07079 8.39257C2.34193 7.9001 2.73321 7.48421 3.20825 7.18358Z" fill="#0CBC87"/>
<path d="M7.49992 10.0002L9.16658 11.6669L12.4999 8.33358" fill="#0CBC87"/>
<path d="M7.49992 10.0002L9.16658 11.6669L12.4999 8.33358M3.20825 7.18358C3.08662 6.63568 3.10529 6.06595 3.26255 5.52719C3.4198 4.98844 3.71054 4.49811 4.10781 4.10168C4.50507 3.70524 4.99601 3.41553 5.53509 3.25941C6.07417 3.10328 6.64394 3.0858 7.19158 3.20858C7.49301 2.73716 7.90825 2.34921 8.39904 2.08048C8.88983 1.81175 9.44037 1.6709 9.99992 1.6709C10.5595 1.6709 11.11 1.81175 11.6008 2.08048C12.0916 2.34921 12.5068 2.73716 12.8082 3.20858C13.3567 3.08526 13.9275 3.10267 14.4674 3.25917C15.0074 3.41568 15.4989 3.70619 15.8965 4.10371C16.294 4.50122 16.5845 4.9928 16.741 5.53275C16.8975 6.07269 16.9149 6.64344 16.7916 7.19191C17.263 7.49334 17.6509 7.90858 17.9197 8.39937C18.1884 8.89016 18.3293 9.4407 18.3293 10.0002C18.3293 10.5598 18.1884 11.1103 17.9197 11.6011C17.6509 12.0919 17.263 12.5072 16.7916 12.8086C16.9144 13.3562 16.8969 13.926 16.7408 14.4651C16.5846 15.0042 16.2949 15.4951 15.8985 15.8924C15.502 16.2896 15.0117 16.5804 14.473 16.7376C13.9342 16.8949 13.3645 16.9135 12.8166 16.7919C12.5156 17.2651 12.1 17.6547 11.6084 17.9247C11.1167 18.1946 10.5649 18.3361 10.0041 18.3361C9.44323 18.3361 8.89144 18.1946 8.39981 17.9247C7.90818 17.6547 7.49261 17.2651 7.19158 16.7919C6.64394 16.9147 6.07417 16.8972 5.53509 16.7411C4.99601 16.585 4.50507 16.2952 4.10781 15.8988C3.71054 15.5024 3.4198 15.012 3.26255 14.4733C3.10529 13.9345 3.08662 13.3648 3.20825 12.8169C2.73321 12.5163 2.34193 12.1004 2.07079 11.6079C1.79965 11.1155 1.65747 10.5624 1.65747 10.0002C1.65747 9.43807 1.79965 8.88503 2.07079 8.39257C2.34193 7.9001 2.73321 7.48421 3.20825 7.18358Z" stroke="white" stroke-width="2" stroke-linecap="round" stroke-linejoin="round"/>
</svg>
