<svg width="88" height="40" viewBox="0 0 88 40" fill="none" xmlns="http://www.w3.org/2000/svg">
<path d="M79.27 31.8875C79.27 36.2145 75.8728 39.5037 71.421 39.5009C66.9692 39.4981 63.5917 36.2005 63.5945 31.8623C63.5973 27.5242 67.0002 24.2377 71.4435 24.2461C75.8868 24.2545 79.2756 27.5632 79.27 31.8875ZM75.2991 31.8875C75.2908 31.131 75.0573 30.3938 74.6281 29.7686C74.1988 29.1433 73.5929 28.6578 72.8865 28.373C72.18 28.0882 71.4044 28.0168 70.6572 28.1678C69.91 28.3188 69.2244 28.6855 68.6865 29.2218C68.1487 29.758 67.7825 30.44 67.6341 31.182C67.4856 31.9241 67.5615 32.6931 67.8521 33.3925C68.1428 34.0919 68.6352 34.6905 69.2677 35.1131C69.9001 35.5358 70.6444 35.7637 71.4069 35.7681C71.9218 35.778 72.4333 35.6845 72.9108 35.4933C73.3882 35.3021 73.8218 35.017 74.1854 34.6553C74.5489 34.2936 74.835 33.8627 75.0264 33.3884C75.2178 32.9142 75.3106 32.4065 75.2991 31.8958V31.8875Z" fill="#6A6F73"/>
<path d="M34.4928 37.418C34.4928 36.9716 34.5097 36.5252 34.4928 36.0872C34.476 35.7803 34.5435 35.7134 34.8556 35.8082C36.0784 36.156 37.351 36.2993 38.6212 36.2323C39.1071 36.2192 39.5853 36.1092 40.0273 35.9087C40.9272 35.4679 41.006 34.5138 40.1989 33.9335C39.7472 33.6439 39.2502 33.4308 38.7281 33.303C37.7895 33.0452 36.8982 32.6412 36.0874 32.1061C33.6745 30.4127 34.0148 26.5265 36.5092 25.0953C37.5912 24.5033 38.815 24.214 40.0498 24.2583C41.1589 24.2804 42.263 24.4122 43.3458 24.6517C43.5708 24.6991 43.6495 24.7828 43.6439 25.0228C43.627 25.8764 43.6298 26.7329 43.6439 27.5894C43.6439 27.8126 43.5989 27.8684 43.3626 27.807C42.3564 27.529 41.3131 27.4057 40.2692 27.4415C39.7966 27.4523 39.3336 27.5757 38.9193 27.8014C38.7711 27.8722 38.644 27.9799 38.5504 28.114C38.4567 28.2481 38.3997 28.404 38.385 28.5665C38.3703 28.729 38.3983 28.8925 38.4663 29.041C38.5343 29.1896 38.64 29.3181 38.7731 29.4139C39.1201 29.6763 39.5171 29.8661 39.9401 29.9719C40.6942 30.1781 41.4312 30.4412 42.1449 30.7586C43.7198 31.5593 44.676 32.7813 44.676 34.5751C44.676 36.4471 43.8548 37.8588 42.1449 38.7236C41.1371 39.213 40.0328 39.4759 38.9109 39.4936C37.5213 39.519 36.1327 39.4068 34.7656 39.1588C34.5406 39.1253 34.4844 39.0416 34.4844 38.824C34.5041 38.3526 34.4928 37.8839 34.4928 37.418Z" fill="#6A6F73"/>
<path d="M59.6406 28.7221C58.5765 28.175 57.3877 27.9107 56.19 27.9549C55.1458 27.9308 54.1347 28.3193 53.3792 29.0348C52.6237 29.7502 52.1857 30.7341 52.1614 31.77C52.1372 32.8059 52.5288 33.8089 53.25 34.5583C53.9712 35.3078 54.963 35.7424 56.0072 35.7664C57.1734 35.8559 58.3428 35.6404 59.3988 35.1415C59.4325 35.1149 59.4713 35.0953 59.5129 35.0838C59.5544 35.0723 59.5978 35.0691 59.6406 35.0745V38.1601C59.6406 38.997 59.6406 38.997 58.7969 39.184C56.7159 39.661 54.6573 39.6582 52.6887 38.746C49.9327 37.4682 48.4704 35.281 48.3298 32.2735C48.2004 29.6148 49.1397 27.3941 51.3192 25.7732C52.8547 24.6294 54.6264 24.1998 56.5275 24.25C57.4905 24.2782 58.4459 24.4282 59.3706 24.6964C59.5084 24.7354 59.6378 24.755 59.6378 24.9754C59.635 26.2001 59.6406 27.4388 59.6406 28.7221Z" fill="#6A6F73"/>
<path d="M20.5244 28.7237C19.4605 28.1734 18.2699 27.9089 17.071 27.9565C16.0268 27.9343 15.0165 28.3245 14.2623 29.0412C13.5081 29.758 13.0719 30.7427 13.0495 31.7785C13.0271 32.8144 13.4205 33.8167 14.143 34.5648C14.8655 35.313 15.8581 35.7458 16.9023 35.768C18.1365 35.8584 19.3721 35.6103 20.4738 35.051C20.561 35.1458 20.5216 35.2491 20.5216 35.33C20.5216 36.4459 20.5216 37.5312 20.5216 38.6303C20.5216 38.8619 20.4738 38.9763 20.2207 39.046C17.9709 39.6375 15.7436 39.7295 13.5838 38.7391C10.7716 37.4502 9.34292 35.2184 9.21636 32.1719C9.11231 29.7224 9.95036 27.6384 11.8543 26.0343C13.0565 25.0356 14.5388 24.427 16.1008 24.2906C17.4861 24.1546 18.8849 24.2843 20.2207 24.6728C20.4344 24.7314 20.5244 24.8095 20.5216 25.0522C20.516 26.2826 20.5244 27.4682 20.5244 28.7237Z" fill="#6A6F73"/>
<path d="M25.6853 12.1652V21.7622C25.6853 22.7526 25.106 23.5114 24.2229 23.6955C23.9541 23.754 23.6755 23.7528 23.4072 23.692C23.1388 23.6312 22.8874 23.5123 22.6708 23.3438C22.4542 23.1753 22.2778 22.9614 22.1543 22.7174C22.0307 22.4734 21.9631 22.2053 21.9563 21.9324V2.53747C21.9563 1.79537 22.2009 1.1844 22.8562 0.788246C23.1343 0.606572 23.4586 0.506749 23.7916 0.50033C24.1245 0.493912 24.4525 0.581161 24.7376 0.751979C25.0399 0.913279 25.2903 1.1559 25.4599 1.452C25.6295 1.74809 25.7116 2.08563 25.6965 2.42588C25.6965 5.13759 25.6965 7.84837 25.6965 10.5582C25.6853 11.1022 25.6853 11.6351 25.6853 12.1652Z" fill="#6A6F73"/>
<path d="M62.8406 12.1237V2.45691C62.8406 1.4442 63.4284 0.713267 64.3592 0.548667C64.8406 0.459661 65.3379 0.563539 65.7422 0.837544C66.1465 1.11155 66.4248 1.53335 66.5162 2.01054C66.5335 2.10265 66.5438 2.1959 66.5472 2.28952V21.69C66.5691 22.1019 66.4715 22.5115 66.2659 22.8701C66.0533 23.2071 65.7368 23.467 65.3634 23.6112C64.99 23.7555 64.5796 23.7764 64.1933 23.6708C63.8003 23.5642 63.4543 23.3309 63.2099 23.0075C62.9655 22.6842 62.8365 22.2894 62.8434 21.8853C62.8434 19.2182 62.8434 16.5539 62.8434 13.8868C62.8406 13.301 62.8406 12.7123 62.8406 12.1237Z" fill="#6A6F73"/>
<path d="M29.4369 31.8629C29.4369 34.2064 29.4369 36.5498 29.4369 38.8933C29.4369 39.1723 29.3554 39.242 29.0826 39.2364C28.042 39.2225 26.9987 39.2364 25.9582 39.2364C25.7416 39.2364 25.677 39.1862 25.677 38.9574C25.677 34.2333 25.677 29.5111 25.677 24.7907C25.677 24.5591 25.7388 24.4922 25.9751 24.4922C27.0071 24.4922 28.0364 24.5089 29.0685 24.4922C29.3497 24.4922 29.4425 24.5591 29.4425 24.8577C29.4313 27.2011 29.4369 29.5334 29.4369 31.8629Z" fill="#6A6F73"/>
<path d="M76.7669 13.7699C76.7669 15.2708 76.7669 16.7689 76.7669 18.2671C76.7651 18.7132 76.6006 19.1436 76.3038 19.4788C76.0069 19.8139 75.5979 20.0311 75.1521 20.0903C74.7064 20.1495 74.2541 20.0466 73.8789 19.8007C73.5037 19.5548 73.2309 19.1825 73.1109 18.7525C73.0553 18.5716 73.0259 18.3837 73.0238 18.1945C73.0238 15.2392 73.0238 12.2848 73.0238 9.33126C73.0062 8.972 73.1001 8.61605 73.2927 8.31129C73.4852 8.00654 73.7673 7.76762 74.1008 7.62667C74.388 7.49298 74.7047 7.43406 75.0212 7.45546C75.3377 7.47687 75.6434 7.5779 75.9097 7.74902C76.1759 7.92014 76.3937 8.15572 76.5427 8.43353C76.6917 8.71133 76.7669 9.02221 76.7612 9.33684V13.7699H76.7669Z" fill="#6A6F73"/>
<path d="M11.7254 13.7471C11.7254 12.2713 11.7254 10.7927 11.7254 9.31683C11.7212 8.9166 11.8483 8.52587 12.0874 8.20348C12.3266 7.88109 12.6648 7.64449 13.0512 7.5293C13.4376 7.41411 13.8513 7.42658 14.2299 7.56481C14.6086 7.70304 14.9317 7.95957 15.1507 8.29576C15.3527 8.60656 15.4583 8.96936 15.4544 9.33915C15.4544 12.2824 15.4544 15.2257 15.4544 18.1718C15.4514 18.6623 15.2521 19.1316 14.9003 19.4764C14.5486 19.8212 14.0731 20.0132 13.5786 20.0102C13.0841 20.0073 12.6111 19.8096 12.2635 19.4606C11.9159 19.1116 11.7224 18.64 11.7254 18.1494C11.7197 16.682 11.7254 15.2145 11.7254 13.7471Z" fill="#6A6F73"/>
<path d="M32.1533 13.7644C32.1533 12.2858 32.1533 10.8072 32.1533 9.33137C32.1478 8.97907 32.2439 8.63255 32.4302 8.33257C32.6165 8.03259 32.8853 7.79164 33.2049 7.63807C33.5246 7.4845 33.8818 7.42469 34.2346 7.46569C34.5873 7.50669 34.921 7.64679 35.1962 7.8695C35.4162 8.03531 35.5936 8.25039 35.7138 8.49719C35.834 8.74398 35.8937 9.01548 35.888 9.28952C35.888 12.2653 35.888 15.2412 35.888 18.217C35.8902 18.4588 35.8444 18.6987 35.7532 18.9229C35.6619 19.1471 35.5271 19.3514 35.3563 19.5239C35.1855 19.6964 34.9821 19.8339 34.7578 19.9285C34.5334 20.023 34.2925 20.0728 34.0488 20.075H34.0319C33.781 20.0755 33.5326 20.026 33.3013 19.9295C33.07 19.8331 32.8606 19.6915 32.6855 19.5134C32.5103 19.3352 32.373 19.1239 32.2816 18.8922C32.1902 18.6604 32.1466 18.4128 32.1533 18.164C32.1533 16.6965 32.1533 15.2291 32.1533 13.7644Z" fill="#6A6F73"/>
<path d="M56.3388 13.7822C56.3388 15.2468 56.3388 16.7143 56.3388 18.179C56.3506 18.5251 56.2613 18.8672 56.0817 19.1642C55.9021 19.4612 55.6398 19.7003 55.3263 19.8529C55.0354 20.0132 54.7043 20.0879 54.3721 20.0681C54.0398 20.0484 53.7201 19.935 53.4506 19.7413C52.8375 19.3367 52.6069 18.7369 52.6069 18.0199C52.6069 15.5091 52.6069 12.9982 52.6069 10.4874C52.6069 10.0661 52.59 9.65045 52.6069 9.2236C52.6222 8.736 52.8321 8.2744 53.1905 7.94034C53.5489 7.60628 54.0263 7.42713 54.5178 7.4423C55.0093 7.45746 55.4747 7.66571 55.8114 8.02122C56.1481 8.37673 56.3287 8.85039 56.3134 9.33798C56.3388 10.8278 56.3388 12.3064 56.3388 13.7822Z" fill="#6A6F73"/>
<path d="M1.50011 16.3007V14.4371C1.49734 14.1942 1.54283 13.9531 1.63397 13.7277C1.72511 13.5022 1.86013 13.2968 2.0313 13.1231C2.20248 12.9494 2.40647 12.8108 2.63162 12.7153C2.85678 12.6198 3.09869 12.5693 3.34354 12.5665C3.58839 12.5638 3.83139 12.6089 4.05866 12.6993C4.28594 12.7897 4.49303 12.9237 4.66813 13.0935C4.84322 13.2633 4.98289 13.4657 5.07915 13.689C5.17541 13.9124 5.22638 14.1524 5.22915 14.3953C5.24789 15.66 5.24789 16.9247 5.22915 18.1894C5.23362 18.4348 5.1889 18.6786 5.09759 18.9067C5.00628 19.1348 4.8702 19.3426 4.69725 19.518C4.5243 19.6935 4.31793 19.8331 4.09013 19.9288C3.86233 20.0245 3.61763 20.0743 3.37025 20.0754C3.12076 20.0732 2.87419 20.022 2.64478 19.9246C2.41538 19.8273 2.20771 19.6858 2.03379 19.5084C1.85987 19.3309 1.72315 19.121 1.63155 18.8908C1.53994 18.6605 1.49527 18.4146 1.50011 18.1671C1.50011 17.545 1.50011 16.9228 1.50011 16.3007Z" fill="#6A6F73"/>
<path d="M46.1022 16.3069C46.1022 16.9402 46.1163 17.5735 46.1022 18.204C46.1067 18.6466 45.9503 19.076 45.6616 19.4136C45.3729 19.7511 44.9713 19.9742 44.5304 20.042C44.0894 20.1098 43.6386 20.0177 43.2605 19.7826C42.8824 19.5475 42.6024 19.1852 42.4716 18.7619C42.4118 18.559 42.3824 18.3484 42.3844 18.137C42.3844 16.8927 42.3844 15.6485 42.3844 14.4042C42.3764 13.9897 42.5095 13.5846 42.7624 13.2545C43.0153 12.9244 43.373 12.6887 43.7778 12.5854C44.1825 12.4821 44.6105 12.5174 44.9926 12.6854C45.3746 12.8535 45.6883 13.1445 45.8829 13.5115C46.0351 13.8094 46.1104 14.1401 46.1022 14.474C46.105 15.0849 46.1022 15.6959 46.1022 16.3069Z" fill="#6A6F73"/>
<path d="M86.9926 16.3128C86.9926 16.9572 87.0095 17.6017 86.9926 18.2461C87.006 18.7013 86.8486 19.1451 86.5511 19.4917C86.2535 19.8384 85.8368 20.0631 85.3818 20.1225C84.9268 20.1819 84.4657 20.0717 84.0879 19.8132C83.7101 19.5547 83.4424 19.1663 83.3367 18.7232C83.2836 18.5192 83.258 18.309 83.2607 18.0983C83.2607 16.8987 83.2607 15.6962 83.2607 14.4966C83.2607 13.4504 83.8851 12.6972 84.83 12.5437C85.0953 12.5004 85.367 12.5154 85.6259 12.5877C85.8848 12.66 86.1245 12.7878 86.3281 12.9621C86.5317 13.1364 86.6942 13.3529 86.8042 13.5964C86.9141 13.8399 86.9689 14.1043 86.9645 14.3711C86.9926 15.0239 86.9926 15.6795 86.9926 16.3128Z" fill="#6A6F73"/>
</svg>
