<svg width="63" height="40" viewBox="0 0 63 40" fill="none" xmlns="http://www.w3.org/2000/svg">
<g clip-path="url(#clip0_3861_4160)">
<path d="M19.7682 32.2174L19.6561 32.3261C17.8947 34.1207 15.8565 35.0688 13.757 35.0688C9.37217 35.0688 6.1913 31.7793 6.1913 27.2419C6.1913 22.7116 9.37217 19.4168 13.757 19.4168C15.8565 19.4168 17.8947 20.3702 19.6561 22.1718L19.7682 22.2787L22.5881 18.8683L22.5127 18.7772C20.1678 16.0064 17.3532 14.6587 13.8937 14.6587C10.4254 14.6587 7.24984 15.8276 4.96452 17.9324C2.4759 20.2142 1.16675 23.4319 1.16675 27.2419C1.16675 31.052 2.4759 34.2767 4.96452 36.5585C7.24984 38.6756 10.4254 39.8357 13.8937 39.8357C17.3532 39.8357 20.1678 38.4863 22.5127 35.7138L22.5881 35.6296L19.7682 32.2174Z" fill="#6A6F73"/>
<path d="M25.4363 39.3671H30.417V15.0488H25.4363V39.3671Z" fill="#6A6F73"/>
<path d="M49.9306 34.0849C48.6004 34.8946 47.3648 35.3029 46.2537 35.3029C44.6431 35.3029 43.9141 34.4512 43.9141 32.5584V19.6544H48.9912V15.0768H43.9141V7.50928L39.0332 10.1241V15.0768H34.8201V19.6544H39.0332V33.3804C39.0332 37.1185 41.2485 39.6773 44.5573 39.7438C46.8023 39.7877 48.1552 39.1182 48.9754 38.6275L49.028 38.5942L50.225 33.9044L49.9306 34.0849Z" fill="#6A6F73"/>
<path d="M54.0535 39.3671H59.0413V15.0488H54.0535V39.3671Z" fill="#6A6F73"/>
<path d="M61.9463 10.79C57.395 4.34411 49.838 0.499023 42.1496 0.499023C34.4629 0.499023 26.9042 4.34411 22.3616 10.79L22.1268 11.1212H27.8576L27.9207 11.0528C31.8201 7.02551 36.913 4.89792 42.1496 4.89792C47.3862 4.89792 52.4756 7.02551 56.3838 11.0528L56.4468 11.1212H62.1742L61.9463 10.79Z" fill="#6A6F73"/>
</g>
<defs>
<clipPath id="clip0_3861_4160">
<rect width="62" height="40" fill="white" transform="translate(0.666748)"/>
</clipPath>
</defs>
</svg>
