<svg width="63" height="40" viewBox="0 0 63 40" fill="none" xmlns="http://www.w3.org/2000/svg">
<g clip-path="url(#clip0_4442_4680)">
<path d="M19.2682 32.2174L19.1561 32.3261C17.3947 34.1207 15.3565 35.0688 13.257 35.0688C8.87217 35.0688 5.6913 31.7793 5.6913 27.2419C5.6913 22.7116 8.87217 19.4168 13.257 19.4168C15.3565 19.4168 17.3947 20.3702 19.1561 22.1718L19.2682 22.2787L22.0881 18.8683L22.0127 18.7772C19.6678 16.0064 16.8532 14.6587 13.3937 14.6587C9.92545 14.6587 6.74984 15.8276 4.46452 17.9324C1.9759 20.2142 0.666748 23.4319 0.666748 27.2419C0.666748 31.052 1.9759 34.2767 4.46452 36.5585C6.74984 38.6756 9.92545 39.8357 13.3937 39.8357C16.8532 39.8357 19.6678 38.4863 22.0127 35.7138L22.0881 35.6296L19.2682 32.2174Z" fill="#6A6F73"/>
<path d="M24.9363 39.3671H29.917V15.0488H24.9363V39.3671Z" fill="#6A6F73"/>
<path d="M49.4306 34.0849C48.1004 34.8946 46.8648 35.3029 45.7537 35.3029C44.1431 35.3029 43.4141 34.4512 43.4141 32.5584V19.6544H48.4912V15.0768H43.4141V7.50928L38.5332 10.1241V15.0768H34.3201V19.6544H38.5332V33.3804C38.5332 37.1185 40.7485 39.6773 44.0573 39.7438C46.3023 39.7877 47.6552 39.1182 48.4754 38.6275L48.528 38.5942L49.725 33.9044L49.4306 34.0849Z" fill="#6A6F73"/>
<path d="M53.5535 39.3671H58.5413V15.0488H53.5535V39.3671Z" fill="#6A6F73"/>
<path d="M61.4462 10.79C56.8949 4.34411 49.3379 0.499023 41.6495 0.499023C33.9628 0.499023 26.4041 4.34411 21.8615 10.79L21.6267 11.1212H27.3575L27.4206 11.0528C31.32 7.02551 36.4129 4.89792 41.6495 4.89792C46.8861 4.89792 51.9755 7.02551 55.8837 11.0528L55.9467 11.1212H61.6741L61.4462 10.79Z" fill="#6A6F73"/>
</g>
<defs>
<clipPath id="clip0_4442_4680">
<rect width="62" height="40" fill="white" transform="translate(0.166748)"/>
</clipPath>
</defs>
</svg>
