<svg width="46" height="47" viewBox="0 0 46 47" fill="none" xmlns="http://www.w3.org/2000/svg">
<path d="M6.33341 10.9998L23.0001 2.6665L39.6667 10.9998M35.5001 19.3332L43.8334 23.4998V40.1665C43.8334 41.2716 43.3944 42.3314 42.613 43.1128C41.8316 43.8942 40.7718 44.3332 39.6667 44.3332H6.33341C5.22835 44.3332 4.16854 43.8942 3.38714 43.1128C2.60573 42.3314 2.16675 41.2716 2.16675 40.1665V23.4998L10.5001 19.3332M27.1667 44.3332V35.9998C27.1667 34.8948 26.7278 33.835 25.9464 33.0536C25.165 32.2722 24.1051 31.8332 23.0001 31.8332C21.895 31.8332 20.8352 32.2722 20.0538 33.0536C19.2724 33.835 18.8334 34.8948 18.8334 35.9998V44.3332M35.5001 8.9165V44.3332M10.5001 8.9165V44.3332M27.1667 17.2498C27.1667 19.551 25.3013 21.4165 23.0001 21.4165C20.6989 21.4165 18.8334 19.551 18.8334 17.2498C18.8334 14.9487 20.6989 13.0832 23.0001 13.0832C25.3013 13.0832 27.1667 14.9487 27.1667 17.2498Z" stroke="#0CBC87" stroke-width="4" stroke-linecap="round" stroke-linejoin="round"/>
</svg>
