<svg width="56" height="48" viewBox="0 0 56 48" fill="none" xmlns="http://www.w3.org/2000/svg">
<g clip-path="url(#clip0_3861_4166)">
<mask id="mask0_3861_4166" style="mask-type:luminance" maskUnits="userSpaceOnUse" x="0" y="0" width="56" height="48">
<path d="M55.2375 0H0.500122V48H55.2375V0Z" fill="white"/>
</mask>
<g mask="url(#mask0_3861_4166)">
<path d="M35.5748 10.2086L18.1965 15.9917C16.5483 16.5411 15.652 18.3339 16.2013 19.9821C16.7507 21.6303 18.5435 22.5266 20.1917 21.9772L37.57 16.1941C39.2182 15.6447 40.1146 13.8519 39.5652 12.2038C39.0158 10.5556 37.223 9.65915 35.5748 10.2086Z" fill="#6A6F73"/>
<path d="M35.5748 0.173416L18.1965 5.95655C16.5483 6.50595 15.652 8.29872 16.2013 9.94691C16.7507 11.5951 18.5435 12.4915 20.1917 11.9421L37.57 6.15896C39.2182 5.60956 40.1146 3.81679 39.5652 2.1686C39.0158 0.520404 37.223 -0.375982 35.5748 0.173416Z" fill="#6A6F73"/>
<path d="M35.5749 20.2398L18.1677 26.023C16.5195 26.5724 15.6231 28.3651 16.1725 30.0133C16.7219 31.6615 18.5147 32.5579 20.1629 32.0085L37.5412 26.2254C39.1894 25.676 40.0858 23.8832 39.5364 22.235C39.0159 20.5868 37.2231 19.6904 35.5749 20.2398Z" fill="#6A6F73"/>
<path d="M2.61096 44.7328H6.31217V43.0557H2.61096V41.6388H6.45675V40.0195H0.500122V47.8268H6.51458V46.1786H2.61096V44.7328Z" fill="#6A6F73"/>
<path d="M17.8492 40.0195H15.7384V47.8268H17.8492V40.0195Z" fill="#6A6F73"/>
<path d="M21.0591 43.8651C21.1169 41.2627 23.7193 40.9446 25.4543 41.9277L25.5988 40.2506C22.6205 39.1229 18.8904 40.135 18.8904 43.8362C18.8615 47.6241 22.5627 48.6073 25.6278 47.6241L25.5121 45.9181C23.7772 46.8434 21.0302 46.4675 21.0591 43.8651Z" fill="#6A6F73"/>
<path d="M28.6063 42.073C28.6063 41.1477 30.6304 41.1767 31.7003 41.755L31.8448 40.1357C29.2713 39.355 26.4376 39.9622 26.4376 42.2465C26.4376 45.0224 30.081 44.3285 30.081 45.5718C30.081 46.6996 28.0858 46.555 26.6978 45.9188L26.5533 47.6538C28.7798 48.3188 32.2207 48.2899 32.2207 45.3984C32.2207 42.4779 28.6063 43.461 28.6063 42.073Z" fill="#6A6F73"/>
<path d="M35.0252 42.073C35.0252 41.1477 37.0493 41.1767 38.1192 41.755L38.2638 40.1357C35.6903 39.355 32.8565 39.9622 32.8565 42.2465C32.8565 45.0224 36.4999 44.3285 36.4999 45.5718C36.4999 46.6996 34.5047 46.555 33.1168 45.9188L32.9433 47.6538C35.1698 48.3188 38.6397 48.2899 38.6397 45.3984C38.6397 42.4779 35.0252 43.461 35.0252 42.073Z" fill="#6A6F73"/>
<path d="M53.3004 40.0195V45.0509L50.7269 40.0195H48.0377V47.8268H50.004V42.6798L52.6931 47.8268H55.2377V40.0195H53.3004Z" fill="#6A6F73"/>
<path d="M43.1219 39.8164C40.9243 39.8164 39.2472 41.1176 39.2472 43.9224C39.2472 46.6405 40.9243 47.9995 43.1219 47.9995C45.3195 47.9995 46.9966 46.6116 46.9966 43.9224C47.0255 41.1176 45.3484 39.8164 43.1219 39.8164ZM43.1219 46.467C41.9363 46.467 41.4158 45.108 41.4158 43.9224C41.4158 42.7369 41.9363 41.3779 43.1219 41.3779C44.3074 41.3779 44.8279 42.8236 44.8279 43.9224C44.8279 45.108 44.3363 46.467 43.1219 46.467Z" fill="#6A6F73"/>
<path d="M12.9627 43.981C13.8591 43.7207 14.3218 43.1424 14.3218 42.1015C14.3218 40.4822 12.876 40.0195 11.835 40.0195H8.01819V47.8268H10.1001V44.8774C10.1001 44.8484 10.6206 44.8774 10.9386 44.8774C11.3146 44.8774 11.5748 45.1087 11.7194 45.4846L12.529 47.8268H14.7844C14.7844 47.8268 13.6856 44.7906 13.6856 44.7617C13.4543 44.1834 12.9917 43.981 12.9627 43.981ZM11.1989 43.287H10.0423V41.5521H11.2278C11.7772 41.5521 12.182 41.8991 12.182 42.4195C12.2109 42.9978 11.7194 43.3159 11.1989 43.287Z" fill="#6A6F73"/>
</g>
</g>
<defs>
<clipPath id="clip0_3861_4166">
<rect width="55" height="48" fill="white" transform="translate(0.500122)"/>
</clipPath>
</defs>
</svg>
