<svg width="18" height="16" viewBox="0 0 18 16" fill="none" xmlns="http://www.w3.org/2000/svg">
<path d="M16.375 5.375C17.1875 5.5 17.5312 6.5 16.9375 7.09375L13.625 10.3125L14.4062 14.8438C14.5 15.5 14 16 13.4062 16C13.25 16 13.0938 15.9688 12.9375 15.9062L8.84375 13.75L4.78125 15.9062C4.625 15.9688 4.46875 16 4.3125 16C3.71875 16 3.1875 15.5 3.3125 14.8438L4.09375 10.3125L0.78125 7.09375C0.1875 6.5 0.53125 5.5 1.34375 5.375L5.90625 4.71875L7.96875 0.5625C8.15625 0.1875 8.5 0 8.84375 0C9.21875 0 9.5625 0.1875 9.75 0.5625L11.8125 4.71875L16.375 5.375ZM12.5625 9.21875L15.1562 6.71875L11.5938 6.1875L10.8125 6.09375L10.4688 5.375L8.875 2.15625L8.84375 12.0625L9.5625 12.4375L12.75 14.0938L12.125 10.5625L12 9.78125L12.5625 9.21875Z" fill="#F7C32E"/>
</svg>
