<svg width="94" height="40" viewBox="0 0 94 40" fill="none" xmlns="http://www.w3.org/2000/svg">
<g clip-path="url(#clip0_4442_4610)">
<mask id="mask0_4442_4610" style="mask-type:luminance" maskUnits="userSpaceOnUse" x="0" y="0" width="94" height="40">
<path d="M93.6904 0.5H0.69043V39.5H93.6904V0.5Z" fill="white"/>
</mask>
<g mask="url(#mask0_4442_4610)">
<path d="M30.5684 7.70499H2.7266V2.52393H30.5684V7.70499ZM32.5577 0.523438H0.736328V9.70043H32.5577V0.523438Z" fill="#6A6F73"/>
<path d="M2.72645 24.8729H0.737305V15.6934H2.72645V19.3197H6.28044V15.6934H8.26959V24.8729H6.28044V21.0701H2.72645V24.8729Z" fill="#6A6F73"/>
<path d="M11.3014 20.822H13.6707C13.6266 20.1471 13.3492 19.6767 12.5737 19.6767C11.9886 19.6767 11.4767 19.9268 11.3014 20.822ZM12.8076 24.992C10.7895 24.992 9.41504 23.7145 9.41504 21.6158C9.41504 19.5742 10.7605 18.165 12.5447 18.165C14.4897 18.165 15.455 19.4716 15.455 21.4246V22.159H11.3014C11.536 23.1713 12.3253 23.4353 13.1153 23.4353C13.8025 23.4353 14.2993 23.289 14.9134 22.9067H14.9872V24.4191C14.4607 24.8014 13.7142 24.992 12.8076 24.992Z" fill="#6A6F73"/>
<path d="M20.6321 21.0246L19.6082 24.8711H17.8681L15.8789 18.4138V18.3403H17.7804L18.8623 22.2021L19.8862 18.3403H21.4365L22.4749 22.2021L23.572 18.3403H25.4003V18.4138L23.4112 24.8711H21.6704L20.6321 21.0246Z" fill="#6A6F73"/>
<path d="M28.601 24.9744C27.0216 24.9744 26.3779 24.3432 26.3779 22.8606V15.6499H28.3084V22.7276C28.3084 23.1828 28.4837 23.3443 28.8639 23.3443C28.9957 23.3443 29.1861 23.3006 29.3027 23.2563H29.3323V24.8567C29.1716 24.9149 28.8935 24.9744 28.601 24.9744Z" fill="#6A6F73"/>
<path d="M31.779 20.822H34.1483C34.1042 20.1471 33.8267 19.6767 33.0513 19.6767C32.4668 19.6767 31.9542 19.9268 31.779 20.822ZM33.2852 24.992C31.267 24.992 29.8926 23.7145 29.8926 21.6158C29.8926 19.5742 31.238 18.165 33.0223 18.165C34.9673 18.165 35.9325 19.4716 35.9325 21.4246V22.159H31.779C32.0129 23.1713 32.8029 23.4353 33.5922 23.4353C34.2801 23.4353 34.7769 23.289 35.3916 22.9067H35.4647V24.4191C34.9383 24.8014 34.1924 24.992 33.2852 24.992Z" fill="#6A6F73"/>
<path d="M43.884 18.3393H45.3171V19.8954H43.884V22.553C43.884 23.1259 44.1034 23.3905 44.6885 23.3905C44.8493 23.3905 45.0542 23.3753 45.2736 23.3019H45.3171V24.8289C45.0687 24.9175 44.6885 25.0194 44.1331 25.0194C42.5676 25.0194 41.9535 24.3003 41.9535 22.641V19.8954H39.482V22.553C39.482 23.1259 39.7014 23.3905 40.2859 23.3905C40.4473 23.3905 40.6522 23.3753 40.8716 23.3019H40.9151V24.8289C40.6667 24.9175 40.2859 25.0194 39.7311 25.0194C38.1656 25.0194 37.5515 24.3003 37.5515 22.641V19.8954H36.5566V18.3393H37.5515V16.5483H39.482V18.3393H41.9535V16.5483H43.884V18.3393Z" fill="#6A6F73"/>
<path d="M51.8028 20.1629C52.8128 20.1629 53.2945 19.5906 53.2945 18.7683C53.2945 17.9162 52.8128 17.3439 51.8028 17.3439H50.545V20.1629H51.8028ZM55.3133 18.7683C55.3133 20.7656 53.9824 21.8513 51.9636 21.8513H50.545V24.8318H48.5571V15.6523H51.9636C53.9824 15.6523 55.3133 16.7387 55.3133 18.7651" fill="#6A6F73"/>
<path d="M59.5701 22.7975V22.2397C59.2776 22.0789 58.898 22.0201 58.5027 22.0201C57.8741 22.0201 57.4939 22.2543 57.4939 22.7829C57.4939 23.3267 57.8741 23.5616 58.4441 23.5616C58.985 23.5616 59.3948 23.2824 59.5701 22.7975ZM59.6287 24.2073C59.2044 24.7214 58.5765 24.9708 57.9025 24.9708C56.6308 24.9708 55.5918 24.1934 55.5918 22.812C55.5918 21.5351 56.6308 20.6836 58.1219 20.6836C58.5897 20.6836 59.0733 20.7571 59.5701 20.9033V20.7868C59.5701 20.0816 59.1754 19.7739 58.1377 19.7739C57.4788 19.7739 56.8502 19.9638 56.3086 20.2728H56.2361V18.7161C56.733 18.423 57.6112 18.1729 58.4731 18.1729C60.4332 18.1729 61.5006 19.1124 61.5006 20.7571V24.8531H59.6287V24.2073Z" fill="#6A6F73"/>
<path d="M62.4453 21.5823C62.4453 19.4824 63.9231 18.1611 65.8537 18.1611C66.5409 18.1611 67.184 18.308 67.6669 18.66V20.3193H67.5931C67.1688 19.9964 66.672 19.8052 66.1021 19.8052C65.1368 19.8052 64.4055 20.4668 64.4055 21.5823C64.4055 22.6977 65.1368 23.3441 66.1021 23.3441C66.672 23.3441 67.1688 23.1529 67.5931 22.8294H67.6669V24.4887C67.184 24.8413 66.5409 24.9882 65.8537 24.9882C63.9231 24.9882 62.4453 23.6822 62.4453 21.5823Z" fill="#6A6F73"/>
<path d="M70.8181 21.8862V24.8515H68.8882V15.6719H70.8181V20.8986L72.7637 18.3144H74.9571V18.3878L72.6174 21.3537L74.9571 24.7749V24.8483H72.7486L70.8181 21.883" fill="#6A6F73"/>
<path d="M79.2911 22.7975V22.2397C78.9992 22.0789 78.6184 22.0201 78.2237 22.0201C77.5952 22.0201 77.215 22.2543 77.215 22.7829C77.215 23.3267 77.5952 23.5616 78.1645 23.5616C78.7067 23.5616 79.1159 23.2824 79.2911 22.7975ZM79.3498 24.2073C78.9255 24.7214 78.2963 24.9708 77.6242 24.9708C76.3512 24.9708 75.3135 24.1934 75.3135 22.812C75.3135 21.5351 76.3512 20.6836 77.8442 20.6836C78.312 20.6836 78.7937 20.7571 79.2911 20.9033V20.7868C79.2911 20.0816 78.8965 19.7739 77.8581 19.7739C77.2005 19.7739 76.5706 19.9638 76.0297 20.2728H75.9566V18.7161C76.454 18.423 77.3316 18.1729 78.1941 18.1729C80.1549 18.1729 81.2223 19.1124 81.2223 20.7571V24.8531H79.3498V24.2073Z" fill="#6A6F73"/>
<path d="M84.4866 19.3534C84.8372 18.6336 85.3497 18.2227 86.0666 18.2227C86.3295 18.2227 86.5924 18.2816 86.6939 18.3405V20.1903H86.6214C86.402 20.1017 86.1391 20.0434 85.7734 20.0434C85.1738 20.0434 84.706 20.3961 84.5446 21.0709V24.8301H82.6147V18.2968H84.4866V19.3534Z" fill="#6A6F73"/>
<path d="M91.8002 22.6457V20.5458C91.4787 20.076 91.055 19.8709 90.5714 19.8709C89.7241 19.8709 89.1535 20.4882 89.1535 21.6036C89.1535 22.7191 89.7241 23.3212 90.5714 23.3212C91.055 23.3212 91.4787 23.1154 91.8002 22.6457ZM91.8582 24.1878C91.4491 24.7165 90.8053 25.0096 89.9284 25.0096C88.2608 25.0096 87.1934 23.4832 87.1934 21.6036C87.1934 19.7241 88.2608 18.1825 89.9284 18.1825C90.7763 18.1825 91.3904 18.4472 91.8002 18.9315V15.687H93.7308V24.8602H91.8582V24.1853" fill="#6A6F73"/>
<path d="M0.759277 27.8613H6.40455V28.9768H2.03158V31.7806H5.99474V32.8676H2.03158V35.9215H6.40455V37.037H0.759277V27.8638" fill="#6A6F73"/>
<path d="M11.0485 30.4448C12.496 30.4448 13.3005 31.3995 13.3005 32.9695V37.037H12.0869V32.9993C12.0869 32.1624 11.6626 31.5603 10.7414 31.5603C9.98108 31.5603 9.33737 32.0452 9.11796 32.7347V37.037H7.9043V30.5797H9.11796V31.5192C9.49814 30.9171 10.1419 30.4474 11.0485 30.4474" fill="#6A6F73"/>
<path d="M16.5464 30.5465H18.1989V31.5892H16.5464V35.0685C16.5464 35.8023 16.9266 36.0523 17.6138 36.0523C17.8035 36.0523 18.0085 36.0232 18.1547 35.9643H18.1989V37.0064C18.0236 37.0798 17.7745 37.1387 17.4385 37.1387C15.9317 37.1387 15.3327 36.448 15.3327 35.1863V31.5892H14.2212V30.5465H15.3327V28.8296H16.5464V30.5465Z" fill="#6A6F73"/>
<path d="M20.2285 33.1796H23.4313C23.3878 32.2255 22.9194 31.4918 21.9251 31.4918C21.004 31.4918 20.4038 32.1819 20.2285 33.1796ZM22.1445 37.1736C20.2575 37.1736 18.9707 35.9107 18.9707 33.8848C18.9707 31.8584 20.1699 30.4492 21.9106 30.4492C23.6803 30.4492 24.6015 31.7267 24.6015 33.6202V34.1786H20.1844C20.3161 35.4852 21.1503 36.1164 22.3053 36.1164C23.0221 36.1164 23.5334 35.955 24.104 35.5289H24.1482V36.6013C23.6217 37.0122 22.9339 37.1736 22.1445 37.1736Z" fill="#6A6F73"/>
<path d="M27.2898 31.5579C27.5679 30.8679 28.1826 30.457 28.8837 30.457C29.1623 30.457 29.4108 30.5007 29.5129 30.5596V31.763H29.4694C29.2935 31.6757 29.0009 31.6314 28.7084 31.6314C28.0508 31.6314 27.4947 32.0713 27.2898 32.8057V37.0194H26.0762V30.5621H27.2898V31.5605" fill="#6A6F73"/>
<path d="M33.3931 36.0667C34.5923 36.0667 35.2946 35.1127 35.2946 33.8054C35.2946 32.5139 34.5923 31.5453 33.3931 31.5453C32.7349 31.5453 32.1208 31.9416 31.7993 32.5722V35.0544C32.1208 35.685 32.7349 36.0667 33.3931 36.0667ZM33.598 30.4438C35.5134 30.4438 36.5373 32.0151 36.5373 33.8054C36.5373 35.5976 35.5134 37.1683 33.598 37.1683C32.808 37.1683 32.1353 36.7574 31.7993 36.3161V39.5176H30.585V30.5786H31.7993V31.3123C32.1353 30.8572 32.808 30.4463 33.598 30.4463" fill="#6A6F73"/>
<path d="M39.1932 31.5579C39.4706 30.8679 40.0853 30.457 40.787 30.457C41.065 30.457 41.3134 30.5007 41.4156 30.5596V31.763H41.3721C41.1968 31.6757 40.9043 31.6314 40.6117 31.6314C39.9535 31.6314 39.3981 32.0713 39.1932 32.8057V37.0194H37.9795V30.5621H39.1932V31.5605" fill="#6A6F73"/>
<path d="M43.1778 27.9634C43.6021 27.9634 43.9527 28.3008 43.9527 28.7269C43.9527 29.1529 43.6021 29.4903 43.1778 29.4903C42.7686 29.4903 42.4023 29.1529 42.4023 28.7269C42.4023 28.3008 42.7686 27.9634 43.1778 27.9634Z" fill="#6A6F73"/>
<path d="M42.5728 37.0288H43.7873V30.5664H42.5728V37.0288Z" fill="#6A6F73"/>
<path d="M48.121 33.2312C49.0422 33.5243 50.0654 33.9061 50.0654 35.1393C50.0654 36.4611 48.9835 37.1366 47.5946 37.1366C46.746 37.1366 45.898 36.9309 45.415 36.5491V35.3893H45.4737C46.0153 35.8882 46.8191 36.1085 47.5795 36.1085C48.2667 36.1085 48.8814 35.8439 48.8814 35.2862C48.8814 34.7139 48.3701 34.5815 47.3601 34.2441C46.4534 33.9504 45.4447 33.6123 45.4447 32.3943C45.4447 31.1459 46.4679 30.4121 47.7699 30.4121C48.5302 30.4121 49.2029 30.5736 49.7439 30.9408V32.1157H49.7004C49.1746 31.6897 48.5592 31.4396 47.7989 31.4396C47.0385 31.4396 46.6142 31.7777 46.6142 32.2329C46.6142 32.7469 47.082 32.8931 48.121 33.2312Z" fill="#6A6F73"/>
<path d="M52.3579 33.1796H55.5601C55.5166 32.2255 55.0488 31.4918 54.0539 31.4918C53.1327 31.4918 52.5332 32.1819 52.3579 33.1796ZM54.2733 37.1736C52.3869 37.1736 51.1001 35.9107 51.1001 33.8848C51.1001 31.8584 52.2993 30.4492 54.0394 30.4492C55.8097 30.4492 56.7302 31.7267 56.7302 33.6202V34.1786H52.3138C52.4455 35.4852 53.279 36.1164 54.434 36.1164C55.1515 36.1164 55.6628 35.955 56.2328 35.5289H56.2769V36.6013C55.7511 37.0122 55.0633 37.1736 54.2733 37.1736Z" fill="#6A6F73"/>
</g>
</g>
<defs>
<clipPath id="clip0_4442_4610">
<rect width="94" height="40" fill="white"/>
</clipPath>
</defs>
</svg>
