<svg width="102" height="34" viewBox="0 0 102 34" fill="none" xmlns="http://www.w3.org/2000/svg">
<g clip-path="url(#clip0_4442_4664)">
<mask id="mask0_4442_4664" style="mask-type:luminance" maskUnits="userSpaceOnUse" x="0" y="0" width="102" height="34">
<path d="M101.166 0.5H0.666016V33.5H101.166V0.5Z" fill="white"/>
</mask>
<g mask="url(#mask0_4442_4664)">
<path d="M101.103 8.35689C102.472 16.1158 81.1138 26.277 53.3924 31.0518C25.6743 35.8266 2.09438 33.4037 0.727527 25.6415C-0.638229 17.8814 20.7258 7.72359 48.4439 2.94985C76.163 -1.82716 99.7386 0.595743 101.103 8.35689Z" fill="#6A6F73"/>
<path d="M75.0153 19.8746L74.8728 11.8066H77.4454V21.9754H73.7467L71.1797 13.6301H71.1245L71.2669 21.9754H68.7109V11.8066H72.5697L74.9579 19.8746H75.0153Z" fill="white"/>
<path d="M28.2535 12.7588L26.8304 22.0824H24.0249L25.9515 11.8066H30.5732L32.491 22.0824H29.6966L28.3121 12.7588H28.2535Z" fill="white"/>
<path d="M39.0251 22.0824L37.2873 12.8439H37.2309L37.1658 22.0824H34.5635L34.7931 11.8066H39.0328L40.3158 19.6617H40.371L41.655 11.8066H45.8925L46.1177 22.0824H43.5209L43.4525 12.8439H43.3984L41.6616 22.0824H39.0251Z" fill="white"/>
<path d="M19.6496 19.1837C19.7511 19.4327 19.7202 19.7526 19.6727 19.9459C19.5855 20.2876 19.3515 20.636 18.6603 20.636C18.0089 20.636 17.6136 20.2669 17.6136 19.7024V18.7077H14.8269L14.8247 19.5037C14.8247 21.7944 16.6487 22.4856 18.6029 22.4856C20.482 22.4856 22.03 21.8501 22.2762 20.1381C22.402 19.2503 22.3082 18.6695 22.2651 18.45C21.8268 16.299 17.883 15.6569 17.5893 14.4537C17.5397 14.2473 17.554 14.0289 17.5783 13.9121C17.6501 13.5845 17.8775 13.2231 18.5278 13.2231C19.1351 13.2231 19.4939 13.5944 19.4939 14.1556C19.4939 14.3445 19.4939 14.79 19.4939 14.79H22.0852V14.0682C22.0852 11.8299 20.0537 11.4805 18.5819 11.4805C16.7337 11.4805 15.2233 12.0843 14.9473 13.7571C14.8722 14.2189 14.8611 14.6306 14.9704 15.1459C15.4242 17.2456 19.1152 17.8538 19.6496 19.1837Z" fill="white"/>
<path d="M53.4367 19.165C53.5394 19.4118 53.5063 19.723 53.4599 19.9163C53.3749 20.2569 53.143 20.5998 52.4563 20.5998C51.8137 20.5998 51.4217 20.2307 51.4217 19.6793L51.4195 18.6933H48.6615L48.6582 19.4784C48.6582 21.7463 50.4656 22.4309 52.3999 22.4309C54.2592 22.4309 55.7928 21.8041 56.0346 20.1073C56.1605 19.2262 56.071 18.6529 56.0258 18.4378C55.5896 16.3065 51.6856 15.671 51.3952 14.4797C51.3455 14.2745 51.3599 14.0583 51.3853 13.948C51.4593 13.6182 51.6823 13.2656 52.326 13.2656C52.9277 13.2656 53.2788 13.6281 53.2788 14.1849C53.2788 14.3717 53.2788 14.8128 53.2788 14.8128H55.8502V14.0987C55.8502 11.8843 53.8353 11.5371 52.3779 11.5371C50.5506 11.5371 49.0524 12.1333 48.7819 13.794C48.7068 14.2494 48.6991 14.6534 48.8061 15.1665C49.2533 17.2444 52.9078 17.8482 53.4367 19.165Z" fill="white"/>
<path d="M62.1644 20.5455C62.8854 20.5455 63.1106 20.052 63.1603 19.7997C63.1813 19.6884 63.1868 19.5399 63.1846 19.4066V11.8027H65.8123V19.1741C65.8178 19.363 65.7991 19.7517 65.7902 19.8489C65.6058 21.7673 64.0723 22.3897 62.1633 22.3897C60.2521 22.3897 58.7175 21.7673 58.5353 19.8489C58.5264 19.7517 58.5077 19.363 58.5132 19.1741V11.8027H61.1387V19.4066C61.1387 19.5399 61.1431 19.6894 61.163 19.7997C61.2193 20.052 61.4379 20.5455 62.1644 20.5455Z" fill="white"/>
<path d="M83.8398 20.4374C84.5928 20.4374 84.8556 19.9668 84.9042 19.6927C84.923 19.5748 84.9285 19.4318 84.9274 19.3018V17.8103H83.8608V16.31H87.5452V19.0682C87.5429 19.2603 87.5385 19.4023 87.5076 19.7451C87.3343 21.6144 85.6947 22.2816 83.8531 22.2816C82.0082 22.2816 80.3708 21.6144 80.1953 19.7451C80.1654 19.4023 80.161 19.2603 80.1577 19.0682L80.1599 14.741C80.1599 14.5587 80.1831 14.2355 80.203 14.064C80.4337 12.1434 82.0082 11.5254 83.8531 11.5254C85.6958 11.5254 87.3089 12.1401 87.4999 14.064C87.5341 14.3916 87.5231 14.741 87.5231 14.741V15.0839H84.9031V14.5084C84.9053 14.5095 84.8998 14.2638 84.8688 14.1175C84.8247 13.8904 84.6248 13.3685 83.8332 13.3685C83.0758 13.3685 82.8539 13.862 82.7987 14.1175C82.7667 14.2529 82.7545 14.4364 82.7545 14.6023V19.3018C82.7523 19.4318 82.76 19.5748 82.781 19.6927C82.8263 19.9679 83.088 20.4374 83.8398 20.4374Z" fill="white"/>
</g>
</g>
<defs>
<clipPath id="clip0_4442_4664">
<rect width="101" height="34" fill="white" transform="translate(0.5)"/>
</clipPath>
</defs>
</svg>
