<svg width="46" height="43" viewBox="0 0 46 43" fill="none" xmlns="http://www.w3.org/2000/svg">
<path d="M31.3334 40.25V36.0833C31.3334 33.8732 30.4554 31.7536 28.8926 30.1908C27.3298 28.628 25.2102 27.75 23.0001 27.75H10.5001C8.28994 27.75 6.17033 28.628 4.60752 30.1908C3.04472 31.7536 2.16675 33.8732 2.16675 36.0833V40.25M43.8334 40.25V36.0833C43.832 34.2369 43.2175 32.4433 42.0863 30.984C40.955 29.5247 39.3712 28.4824 37.5834 28.0208M31.3334 3.02083C33.1259 3.47979 34.7147 4.52229 35.8493 5.98398C36.9839 7.44567 37.5998 9.2434 37.5998 11.0937C37.5998 12.9441 36.9839 14.7418 35.8493 16.2035C34.7147 17.6652 33.1259 18.7077 31.3334 19.1667M25.0834 11.0833C25.0834 15.6857 21.3525 19.4167 16.7501 19.4167C12.1477 19.4167 8.41675 15.6857 8.41675 11.0833C8.41675 6.48096 12.1477 2.75 16.7501 2.75C21.3525 2.75 25.0834 6.48096 25.0834 11.0833Z" stroke="#0CBC87" stroke-width="4" stroke-linecap="round" stroke-linejoin="round"/>
</svg>
