<svg width="133" height="40" viewBox="0 0 133 40" fill="none" xmlns="http://www.w3.org/2000/svg">
<path d="M31.2209 17.5252C32.5959 16.4252 33.6959 15.3252 34.9334 14.3627C35.4834 13.9502 36.1709 13.5377 36.8584 13.4002C38.9209 12.8502 40.7084 14.0877 40.9834 16.2877C40.9834 17.1127 40.9834 18.0752 40.9834 18.9002C40.4334 21.9252 39.8834 25.0877 39.3334 28.1127C39.3334 28.8002 39.3334 29.4877 39.3334 30.1752C39.6084 31.2752 40.7084 31.8252 41.6709 31.2752C42.6334 30.8627 43.3209 30.1752 44.1459 29.6252C44.2834 29.6252 44.4209 29.2127 44.4209 29.0752C44.8334 26.6002 45.1084 24.2627 45.3834 21.7877C45.3834 21.5127 45.3834 21.3752 45.3834 21.1002C45.3834 20.4127 44.9709 20.1377 44.2834 20.5502C43.7334 20.8252 43.1834 21.2377 42.4959 21.6502C42.0834 21.1002 41.5334 20.5502 40.9834 19.8627C43.3209 17.8002 45.5209 15.7377 47.8584 13.9502C48.9584 13.1252 50.3334 13.4002 51.2959 14.6377C52.2584 15.8752 52.6709 17.2502 52.5334 18.7627C52.5334 19.0377 52.5334 19.1752 52.3959 19.1752C53.3584 18.3502 54.1834 17.5252 55.1459 16.8377C57.4834 14.9127 60.0959 13.9502 63.1209 14.2252C65.3209 14.3627 66.6959 15.8752 66.9709 18.2127C66.9709 18.7627 66.9709 19.1752 67.1084 19.8627C67.7959 19.1752 68.2084 18.7627 68.7584 18.2127C69.8584 16.9752 71.2334 15.8752 72.7459 15.0502C74.1209 14.3627 75.4959 14.0877 77.0084 14.0877C79.6209 14.0877 81.5459 15.8752 81.4084 18.6252C81.4084 20.6877 80.9959 22.6127 80.7209 24.6752C80.4459 26.3252 80.0334 27.9752 79.8959 29.7627C79.8959 30.4502 79.8959 31.1377 80.5834 31.5502C81.2709 31.8252 82.5084 31.6877 83.0584 31.1377C83.0584 31.1377 83.3334 30.8627 83.3334 30.5877C82.9209 24.8127 85.8084 20.8252 89.7959 17.3877C93.2334 14.6377 97.0834 13.5377 101.483 13.9502C107.121 14.5002 107.808 20.0002 105.471 23.3002C102.996 26.8752 99.6959 29.0752 95.5709 30.3127C94.6084 30.5877 93.6459 30.8627 92.6834 31.1377C93.2334 31.9627 94.0584 32.3752 94.8834 32.5127C97.0834 32.9252 99.2834 32.5127 101.346 31.9627C102.996 31.5502 104.508 30.8627 106.158 30.3127C106.571 30.1752 106.846 29.9002 106.708 29.3502C105.883 22.0627 113.033 14.2252 120.183 13.6752C121.696 13.6752 123.346 13.5377 124.858 13.6752C128.433 14.5002 130.771 17.2502 131.321 21.2377C132.283 28.2502 128.021 35.5377 121.421 37.8752C117.846 39.1127 114.133 39.2502 110.696 37.0502C109.458 36.2252 108.496 34.9877 107.533 33.8877C105.883 34.7127 104.096 35.6752 102.171 36.5002C98.4584 38.0127 94.6084 38.8377 90.6209 38.4252C88.1459 38.1502 86.0834 37.1877 84.7084 34.9877C84.7084 34.9877 84.5709 34.7127 84.4334 34.7127C83.7459 35.2627 83.0584 35.8127 82.2334 36.3627C80.1709 37.7377 77.8334 38.7002 75.3584 38.5627C73.0209 38.5627 71.7834 37.1877 71.5084 34.8502C71.3709 32.5127 71.9209 30.1752 72.4709 27.8377C72.7459 26.3252 72.8834 24.8127 73.0209 23.3002C73.0209 22.6127 73.0209 21.9252 72.1959 21.6502C71.5084 21.2377 70.8209 21.6502 70.2709 22.0627C68.7584 23.3002 67.9334 24.9502 66.9709 26.6002C65.3209 29.4877 64.6334 32.6502 64.9084 35.9502C64.9084 36.7752 65.1834 37.4627 65.3209 38.2877C63.2584 38.2877 61.1959 38.2877 59.4084 37.0502C58.3084 36.2252 57.7584 35.1252 57.6209 33.7502C57.3459 31.5502 57.6209 29.4877 58.1709 27.4252C58.4459 26.1877 58.5834 24.8127 58.7209 23.4377C58.7209 22.6127 58.5834 21.9252 57.7584 21.6502C56.9334 21.2377 56.2459 21.5127 55.5584 22.0627C54.0459 23.4377 53.2209 25.2252 52.5334 27.0127C51.1584 30.5877 50.8834 34.1627 51.5709 37.8752C51.5709 37.8752 51.5709 38.0127 51.5709 38.1502C47.9959 38.4252 45.1084 37.3252 44.1459 34.0252C43.3209 34.7127 42.4959 35.4002 41.6709 35.9502C39.6084 37.4627 37.2709 38.4252 34.6584 38.2877C32.3209 38.2877 30.6709 36.7752 30.6709 34.3002C30.6709 32.5127 31.0834 30.5877 31.3584 28.8002C31.7709 26.7377 32.4584 24.6752 33.0084 22.6127C33.0084 22.3377 33.2834 21.9252 33.1459 21.6502C33.1459 21.1002 32.8709 20.5502 32.4584 20.2752C32.1834 20.1377 31.4959 20.2752 31.0834 20.5502C30.2584 20.9627 29.8459 21.6502 29.4334 22.4752C26.9584 27.8377 23.5209 32.6502 18.9834 36.3627C18.0209 37.1877 16.7834 37.7377 15.5459 38.1502C14.1709 38.7002 12.7959 38.1502 12.1084 36.9127C11.2834 35.6752 10.5959 34.1627 10.1834 32.6502C9.08337 29.3502 8.25837 26.0502 7.29587 22.7502C7.02087 22.0627 6.60837 21.3752 6.19587 20.6877C5.78337 20.1377 5.23337 20.0002 4.68337 20.4127C4.13337 20.8252 3.58337 21.1002 2.89587 21.5127C2.48337 20.9627 2.07087 20.4127 1.52087 19.7252C2.20837 19.0377 2.89587 18.4877 3.58337 17.8002C4.95837 16.7002 6.19587 15.4627 7.57087 14.3627C8.12087 13.9502 8.94587 13.5377 9.63337 13.2627C11.4209 12.8502 12.9334 13.6752 13.4834 15.6002C14.0334 17.2502 14.1709 19.0377 14.5834 20.6877C15.1334 23.0252 15.6834 25.2252 16.0959 27.5627C16.0959 27.8377 16.3709 28.1127 16.5084 28.3877C16.9209 29.2127 17.6084 29.3502 18.1584 28.6627C19.2584 27.4252 20.2209 26.0502 21.0459 24.5377C21.5959 23.7127 21.8709 22.7502 22.0084 21.7877C22.4209 19.8627 21.5959 19.0377 19.6709 19.1752C19.1209 19.1752 18.7084 19.3127 18.1584 19.4502C18.5709 15.1877 23.2459 11.7502 27.2334 12.8502C29.0209 13.2627 29.8459 14.6377 30.2584 16.2877C30.2584 16.5627 30.2584 16.8377 30.3959 17.2502L31.2209 17.5252ZM114.821 28.9377C114.821 29.2127 114.821 29.9002 115.096 30.4502C115.646 32.6502 117.158 33.3377 119.221 32.5127C119.771 32.2377 120.321 31.8252 120.733 31.4127C122.383 29.9002 123.483 27.8377 124.033 25.6377C124.446 23.7127 124.583 21.9252 123.896 20.0002C123.346 18.6252 122.658 18.3502 121.283 18.6252C120.046 18.9002 118.946 19.4502 118.121 20.4127C116.058 22.7502 114.958 25.5002 114.821 28.9377ZM91.7209 28.1127C94.7459 26.8752 97.0834 25.2252 98.7334 22.6127C99.4209 21.6502 99.4209 20.2752 98.7334 19.7252C98.1834 19.1752 96.9459 19.1752 95.9834 19.8627C95.0209 20.6877 94.0584 21.6502 93.3709 22.6127C92.2709 24.1252 91.5834 25.9127 91.7209 28.1127Z" fill="#6A6F73"/>
<path d="M36.9958 9.9625C35.7583 9.9625 34.5208 9.6875 33.9708 8.3125C33.4208 6.8 33.5583 5.425 34.6583 4.1875C36.0333 2.5375 37.8208 1.575 39.8833 1.4375C42.0833 1.4375 43.7333 3.775 43.0458 5.975C42.2208 8.3125 39.7458 10.1 36.9958 9.9625Z" fill="#6A6F73"/>
</svg>
