<svg width="133" height="40" viewBox="0 0 133 40" fill="none" xmlns="http://www.w3.org/2000/svg">
<path d="M30.721 17.5252C32.096 16.4252 33.196 15.3252 34.4335 14.3627C34.9835 13.9502 35.671 13.5377 36.3585 13.4002C38.421 12.8502 40.2085 14.0877 40.4835 16.2877C40.4835 17.1127 40.4835 18.0752 40.4835 18.9002C39.9335 21.9252 39.3835 25.0877 38.8335 28.1127C38.8335 28.8002 38.8335 29.4877 38.8335 30.1752C39.1085 31.2752 40.2085 31.8252 41.171 31.2752C42.1335 30.8627 42.821 30.1752 43.646 29.6252C43.7835 29.6252 43.921 29.2127 43.921 29.0752C44.3335 26.6002 44.6085 24.2627 44.8835 21.7877C44.8835 21.5127 44.8835 21.3752 44.8835 21.1002C44.8835 20.4127 44.471 20.1377 43.7835 20.5502C43.2335 20.8252 42.6835 21.2377 41.996 21.6502C41.5835 21.1002 41.0335 20.5502 40.4835 19.8627C42.821 17.8002 45.021 15.7377 47.3585 13.9502C48.4585 13.1252 49.8335 13.4002 50.796 14.6377C51.7585 15.8752 52.171 17.2502 52.0335 18.7627C52.0335 19.0377 52.0335 19.1752 51.896 19.1752C52.8585 18.3502 53.6835 17.5252 54.646 16.8377C56.9835 14.9127 59.596 13.9502 62.621 14.2252C64.821 14.3627 66.196 15.8752 66.471 18.2127C66.471 18.7627 66.471 19.1752 66.6085 19.8627C67.296 19.1752 67.7085 18.7627 68.2585 18.2127C69.3585 16.9752 70.7335 15.8752 72.246 15.0502C73.621 14.3627 74.996 14.0877 76.5085 14.0877C79.121 14.0877 81.046 15.8752 80.9085 18.6252C80.9085 20.6877 80.496 22.6127 80.221 24.6752C79.946 26.3252 79.5335 27.9752 79.396 29.7627C79.396 30.4502 79.396 31.1377 80.0835 31.5502C80.771 31.8252 82.0085 31.6877 82.5585 31.1377C82.5585 31.1377 82.8335 30.8627 82.8335 30.5877C82.421 24.8127 85.3085 20.8252 89.296 17.3877C92.7335 14.6377 96.5835 13.5377 100.983 13.9502C106.621 14.5002 107.308 20.0002 104.971 23.3002C102.496 26.8752 99.196 29.0752 95.071 30.3127C94.1085 30.5877 93.146 30.8627 92.1835 31.1377C92.7335 31.9627 93.5585 32.3752 94.3835 32.5127C96.5835 32.9252 98.7835 32.5127 100.846 31.9627C102.496 31.5502 104.008 30.8627 105.658 30.3127C106.071 30.1752 106.346 29.9002 106.208 29.3502C105.383 22.0627 112.534 14.2252 119.684 13.6752C121.196 13.6752 122.846 13.5377 124.358 13.6752C127.933 14.5002 130.271 17.2502 130.821 21.2377C131.783 28.2502 127.521 35.5377 120.921 37.8752C117.346 39.1127 113.633 39.2502 110.196 37.0502C108.958 36.2252 107.996 34.9877 107.033 33.8877C105.383 34.7127 103.596 35.6752 101.671 36.5002C97.9585 38.0127 94.1085 38.8377 90.121 38.4252C87.646 38.1502 85.5835 37.1877 84.2085 34.9877C84.2085 34.9877 84.071 34.7127 83.9335 34.7127C83.246 35.2627 82.5585 35.8127 81.7335 36.3627C79.671 37.7377 77.3335 38.7002 74.8585 38.5627C72.521 38.5627 71.2835 37.1877 71.0085 34.8502C70.871 32.5127 71.421 30.1752 71.971 27.8377C72.246 26.3252 72.3835 24.8127 72.521 23.3002C72.521 22.6127 72.521 21.9252 71.696 21.6502C71.0085 21.2377 70.321 21.6502 69.771 22.0627C68.2585 23.3002 67.4335 24.9502 66.471 26.6002C64.821 29.4877 64.1335 32.6502 64.4085 35.9502C64.4085 36.7752 64.6835 37.4627 64.821 38.2877C62.7585 38.2877 60.696 38.2877 58.9085 37.0502C57.8085 36.2252 57.2585 35.1252 57.121 33.7502C56.846 31.5502 57.121 29.4877 57.671 27.4252C57.946 26.1877 58.0835 24.8127 58.221 23.4377C58.221 22.6127 58.0835 21.9252 57.2585 21.6502C56.4335 21.2377 55.746 21.5127 55.0585 22.0627C53.546 23.4377 52.721 25.2252 52.0335 27.0127C50.6585 30.5877 50.3835 34.1627 51.071 37.8752C51.071 37.8752 51.071 38.0127 51.071 38.1502C47.496 38.4252 44.6085 37.3252 43.646 34.0252C42.821 34.7127 41.996 35.4002 41.171 35.9502C39.1085 37.4627 36.771 38.4252 34.1585 38.2877C31.821 38.2877 30.171 36.7752 30.171 34.3002C30.171 32.5127 30.5835 30.5877 30.8585 28.8002C31.271 26.7377 31.9585 24.6752 32.5085 22.6127C32.5085 22.3377 32.7835 21.9252 32.646 21.6502C32.646 21.1002 32.371 20.5502 31.9585 20.2752C31.6835 20.1377 30.996 20.2752 30.5835 20.5502C29.7585 20.9627 29.346 21.6502 28.9335 22.4752C26.4585 27.8377 23.021 32.6502 18.4835 36.3627C17.521 37.1877 16.2835 37.7377 15.046 38.1502C13.671 38.7002 12.296 38.1502 11.6085 36.9127C10.7835 35.6752 10.096 34.1627 9.6835 32.6502C8.5835 29.3502 7.7585 26.0502 6.796 22.7502C6.521 22.0627 6.1085 21.3752 5.696 20.6877C5.2835 20.1377 4.7335 20.0002 4.1835 20.4127C3.6335 20.8252 3.0835 21.1002 2.396 21.5127C1.9835 20.9627 1.571 20.4127 1.021 19.7252C1.7085 19.0377 2.396 18.4877 3.0835 17.8002C4.4585 16.7002 5.696 15.4627 7.071 14.3627C7.621 13.9502 8.446 13.5377 9.1335 13.2627C10.921 12.8502 12.4335 13.6752 12.9835 15.6002C13.5335 17.2502 13.671 19.0377 14.0835 20.6877C14.6335 23.0252 15.1835 25.2252 15.596 27.5627C15.596 27.8377 15.871 28.1127 16.0085 28.3877C16.421 29.2127 17.1085 29.3502 17.6585 28.6627C18.7585 27.4252 19.721 26.0502 20.546 24.5377C21.096 23.7127 21.371 22.7502 21.5085 21.7877C21.921 19.8627 21.096 19.0377 19.171 19.1752C18.621 19.1752 18.2085 19.3127 17.6585 19.4502C18.071 15.1877 22.746 11.7502 26.7335 12.8502C28.521 13.2627 29.346 14.6377 29.7585 16.2877C29.7585 16.5627 29.7585 16.8377 29.896 17.2502L30.721 17.5252ZM114.321 28.9377C114.321 29.2127 114.321 29.9002 114.596 30.4502C115.146 32.6502 116.658 33.3377 118.721 32.5127C119.271 32.2377 119.821 31.8252 120.233 31.4127C121.883 29.9002 122.983 27.8377 123.533 25.6377C123.946 23.7127 124.083 21.9252 123.396 20.0002C122.846 18.6252 122.158 18.3502 120.783 18.6252C119.546 18.9002 118.446 19.4502 117.621 20.4127C115.559 22.7502 114.458 25.5002 114.321 28.9377ZM91.221 28.1127C94.246 26.8752 96.5835 25.2252 98.2335 22.6127C98.921 21.6502 98.921 20.2752 98.2335 19.7252C97.6835 19.1752 96.446 19.1752 95.4835 19.8627C94.521 20.6877 93.5585 21.6502 92.871 22.6127C91.771 24.1252 91.0835 25.9127 91.221 28.1127Z" fill="#6A6F73"/>
<path d="M36.496 9.9625C35.2585 9.9625 34.021 9.6875 33.471 8.3125C32.921 6.8 33.0585 5.425 34.1585 4.1875C35.5335 2.5375 37.321 1.575 39.3835 1.4375C41.5835 1.4375 43.2335 3.775 42.546 5.975C41.721 8.3125 39.246 10.1 36.496 9.9625Z" fill="#6A6F73"/>
</svg>
