<svg width="49" height="48" viewBox="0 0 49 48" fill="none" xmlns="http://www.w3.org/2000/svg">
<g clip-path="url(#clip0_4442_4640)">
<mask id="mask0_4442_4640" style="mask-type:luminance" maskUnits="userSpaceOnUse" x="0" y="0" width="49" height="48">
<path d="M48.8333 0H0.833252V48H48.8333V0Z" fill="white"/>
</mask>
<g mask="url(#mask0_4442_4640)">
<path fill-rule="evenodd" clip-rule="evenodd" d="M24.8241 0.712891C11.9582 0.712891 1.52856 11.143 1.52856 24.0084C1.52856 36.874 11.9584 47.3039 24.8241 47.3039C37.6892 47.3039 48.1196 36.874 48.1196 24.0084C48.1196 11.1432 37.6892 0.712891 24.8241 0.712891ZM24.8241 45.2152C13.1117 45.2152 3.61722 35.7207 3.61722 24.0084C3.61722 12.2965 13.1117 2.8018 24.8241 2.8018C36.536 2.8018 46.0309 12.2965 46.0309 24.0084C46.0309 35.7207 36.536 45.2152 24.8241 45.2152Z" fill="#6A6F73"/>
<path fill-rule="evenodd" clip-rule="evenodd" d="M20.1814 8.1656C21.6898 7.72526 23.2532 7.50245 24.8245 7.50391C26.4345 7.50391 27.9909 7.73452 29.4622 8.16435L24.8245 18.4445L20.1814 8.1656Z" fill="#6A6F73"/>
<path fill-rule="evenodd" clip-rule="evenodd" d="M33.6841 10.0801C35.4222 11.1889 36.9387 12.6116 38.1561 14.2756L30.5441 31.1203L27.6067 24.5889H22.0413L19.1041 31.12L11.5031 14.2599C12.7181 12.6026 14.2304 11.1853 15.9631 10.0803L22.0413 23.5646H27.6256L33.6841 10.0801ZM8.87572 19.7369C8.50414 21.1305 8.31652 22.5666 8.31763 24.0089C8.31763 30.4775 12.038 36.0766 17.4558 38.7839L8.87572 19.7369Z" fill="#6A6F73"/>
<path fill-rule="evenodd" clip-rule="evenodd" d="M20.2581 39.8758C21.7428 40.3017 23.2799 40.517 24.8244 40.5156C26.4068 40.5156 27.9369 40.2927 29.3852 39.8775L24.8244 29.7485L20.2581 39.8758ZM32.1919 38.7843C37.6099 36.077 41.3302 30.478 41.3302 24.0093C41.3302 22.5449 41.1394 21.1252 40.7821 19.7734L32.1919 38.7843Z" fill="#6A6F73"/>
</g>
</g>
<defs>
<clipPath id="clip0_4442_4640">
<rect width="48" height="48" fill="white" transform="translate(0.833252)"/>
</clipPath>
</defs>
</svg>
