<svg width="88" height="40" viewBox="0 0 88 40" fill="none" xmlns="http://www.w3.org/2000/svg">
<path d="M78.7699 31.8875C78.7699 36.2145 75.3727 39.5037 70.9209 39.5009C66.4691 39.4981 63.0916 36.2005 63.0944 31.8623C63.0972 27.5242 66.5001 24.2377 70.9434 24.2461C75.3867 24.2545 78.7755 27.5632 78.7699 31.8875ZM74.799 31.8875C74.7907 31.131 74.5572 30.3938 74.128 29.7686C73.6987 29.1433 73.0928 28.6578 72.3864 28.373C71.6799 28.0882 70.9043 28.0168 70.1571 28.1678C69.4099 28.3188 68.7243 28.6855 68.1864 29.2218C67.6486 29.758 67.2824 30.44 67.134 31.182C66.9855 31.9241 67.0614 32.6931 67.352 33.3925C67.6427 34.0919 68.1351 34.6905 68.7676 35.1131C69.4 35.5358 70.1443 35.7637 70.9068 35.7681C71.4217 35.778 71.9332 35.6845 72.4107 35.4933C72.8881 35.3021 73.3217 35.017 73.6853 34.6553C74.0488 34.2936 74.3349 33.8627 74.5263 33.3884C74.7177 32.9142 74.8105 32.4065 74.799 31.8958V31.8875Z" fill="#6A6F73"/>
<path d="M33.9928 37.418C33.9928 36.9716 34.0097 36.5252 33.9928 36.0872C33.976 35.7803 34.0435 35.7134 34.3556 35.8082C35.5784 36.156 36.851 36.2993 38.1212 36.2323C38.6071 36.2192 39.0853 36.1092 39.5273 35.9087C40.4272 35.4679 40.506 34.5138 39.6989 33.9335C39.2472 33.6439 38.7502 33.4308 38.2281 33.303C37.2895 33.0452 36.3982 32.6412 35.5874 32.1061C33.1745 30.4127 33.5148 26.5265 36.0092 25.0953C37.0912 24.5033 38.315 24.214 39.5498 24.2583C40.6589 24.2804 41.763 24.4122 42.8458 24.6517C43.0708 24.6991 43.1495 24.7828 43.1439 25.0228C43.127 25.8764 43.1298 26.7329 43.1439 27.5894C43.1439 27.8126 43.0989 27.8684 42.8626 27.807C41.8564 27.529 40.8131 27.4057 39.7692 27.4415C39.2966 27.4523 38.8336 27.5757 38.4193 27.8014C38.2711 27.8722 38.144 27.9799 38.0504 28.114C37.9567 28.2481 37.8997 28.404 37.885 28.5665C37.8703 28.729 37.8983 28.8925 37.9663 29.041C38.0343 29.1896 38.14 29.3181 38.2731 29.4139C38.6201 29.6763 39.0171 29.8661 39.4401 29.9719C40.1942 30.1781 40.9312 30.4412 41.6449 30.7586C43.2198 31.5593 44.176 32.7813 44.176 34.5751C44.176 36.4471 43.3548 37.8588 41.6449 38.7236C40.6371 39.213 39.5328 39.4759 38.4109 39.4936C37.0213 39.519 35.6327 39.4068 34.2656 39.1588C34.0406 39.1253 33.9844 39.0416 33.9844 38.824C34.0041 38.3526 33.9928 37.8839 33.9928 37.418Z" fill="#6A6F73"/>
<path d="M59.1406 28.7221C58.0765 28.175 56.8877 27.9107 55.69 27.9549C54.6458 27.9308 53.6347 28.3193 52.8792 29.0348C52.1237 29.7502 51.6857 30.7341 51.6614 31.77C51.6372 32.8059 52.0288 33.8089 52.75 34.5583C53.4712 35.3078 54.463 35.7424 55.5072 35.7664C56.6734 35.8559 57.8428 35.6404 58.8988 35.1415C58.9325 35.1149 58.9713 35.0953 59.0129 35.0838C59.0544 35.0723 59.0978 35.0691 59.1406 35.0745V38.1601C59.1406 38.997 59.1406 38.997 58.2969 39.184C56.2159 39.661 54.1573 39.6582 52.1887 38.746C49.4327 37.4682 47.9704 35.281 47.8298 32.2735C47.7004 29.6148 48.6397 27.3941 50.8192 25.7732C52.3547 24.6294 54.1264 24.1998 56.0275 24.25C56.9905 24.2782 57.9459 24.4282 58.8706 24.6964C59.0084 24.7354 59.1378 24.755 59.1378 24.9754C59.135 26.2001 59.1406 27.4388 59.1406 28.7221Z" fill="#6A6F73"/>
<path d="M20.0243 28.7237C18.9604 28.1734 17.7698 27.9089 16.5709 27.9565C15.5267 27.9343 14.5164 28.3245 13.7622 29.0412C13.008 29.758 12.5718 30.7427 12.5494 31.7785C12.527 32.8144 12.9204 33.8167 13.6429 34.5648C14.3654 35.313 15.358 35.7458 16.4022 35.768C17.6364 35.8584 18.872 35.6103 19.9737 35.051C20.0609 35.1458 20.0215 35.2491 20.0215 35.33C20.0215 36.4459 20.0215 37.5312 20.0215 38.6303C20.0215 38.8619 19.9737 38.9763 19.7206 39.046C17.4708 39.6375 15.2435 39.7295 13.0837 38.7391C10.2715 37.4502 8.84286 35.2184 8.7163 32.1719C8.61225 29.7224 9.4503 27.6384 11.3542 26.0343C12.5564 25.0356 14.0387 24.427 15.6007 24.2906C16.986 24.1546 18.3848 24.2843 19.7206 24.6728C19.9343 24.7314 20.0243 24.8095 20.0215 25.0522C20.0159 26.2826 20.0243 27.4682 20.0243 28.7237Z" fill="#6A6F73"/>
<path d="M25.1853 12.1652V21.7622C25.1853 22.7526 24.606 23.5114 23.7229 23.6955C23.4541 23.754 23.1755 23.7528 22.9072 23.692C22.6388 23.6312 22.3874 23.5123 22.1708 23.3438C21.9542 23.1753 21.7778 22.9614 21.6543 22.7174C21.5307 22.4734 21.4631 22.2053 21.4563 21.9324V2.53747C21.4563 1.79537 21.7009 1.1844 22.3562 0.788246C22.6343 0.606572 22.9586 0.506749 23.2916 0.50033C23.6245 0.493912 23.9525 0.581161 24.2376 0.751979C24.5399 0.913279 24.7903 1.1559 24.9599 1.452C25.1295 1.74809 25.2116 2.08563 25.1965 2.42588C25.1965 5.13759 25.1965 7.84837 25.1965 10.5582C25.1853 11.1022 25.1853 11.6351 25.1853 12.1652Z" fill="#6A6F73"/>
<path d="M62.3405 12.1237V2.45691C62.3405 1.4442 62.9283 0.713267 63.8591 0.548667C64.3405 0.459661 64.8378 0.563539 65.2421 0.837544C65.6464 1.11155 65.9247 1.53335 66.0161 2.01054C66.0334 2.10265 66.0437 2.1959 66.0471 2.28952V21.69C66.069 22.1019 65.9714 22.5115 65.7658 22.8701C65.5532 23.2071 65.2367 23.467 64.8633 23.6112C64.4899 23.7555 64.0795 23.7764 63.6932 23.6708C63.3002 23.5642 62.9542 23.3309 62.7098 23.0075C62.4654 22.6842 62.3364 22.2894 62.3433 21.8853C62.3433 19.2182 62.3433 16.5539 62.3433 13.8868C62.3405 13.301 62.3405 12.7123 62.3405 12.1237Z" fill="#6A6F73"/>
<path d="M28.9369 31.8629C28.9369 34.2064 28.9369 36.5498 28.9369 38.8933C28.9369 39.1723 28.8554 39.242 28.5826 39.2364C27.542 39.2225 26.4987 39.2364 25.4582 39.2364C25.2416 39.2364 25.177 39.1862 25.177 38.9574C25.177 34.2333 25.177 29.5111 25.177 24.7907C25.177 24.5591 25.2388 24.4922 25.4751 24.4922C26.5071 24.4922 27.5364 24.5089 28.5685 24.4922C28.8497 24.4922 28.9425 24.5591 28.9425 24.8577C28.9313 27.2011 28.9369 29.5334 28.9369 31.8629Z" fill="#6A6F73"/>
<path d="M76.2669 13.7699C76.2669 15.2708 76.2669 16.7689 76.2669 18.2671C76.2651 18.7132 76.1006 19.1436 75.8038 19.4788C75.5069 19.8139 75.0979 20.0311 74.6521 20.0903C74.2064 20.1495 73.7541 20.0466 73.3789 19.8007C73.0037 19.5548 72.7309 19.1825 72.6109 18.7525C72.5553 18.5716 72.5259 18.3837 72.5238 18.1945C72.5238 15.2392 72.5238 12.2848 72.5238 9.33126C72.5062 8.972 72.6001 8.61605 72.7927 8.31129C72.9852 8.00654 73.2673 7.76762 73.6008 7.62667C73.888 7.49298 74.2047 7.43406 74.5212 7.45546C74.8377 7.47687 75.1434 7.5779 75.4097 7.74902C75.6759 7.92014 75.8937 8.15572 76.0427 8.43353C76.1917 8.71133 76.2669 9.02221 76.2612 9.33684V13.7699H76.2669Z" fill="#6A6F73"/>
<path d="M11.2254 13.7471C11.2254 12.2713 11.2254 10.7927 11.2254 9.31683C11.2212 8.9166 11.3483 8.52587 11.5874 8.20348C11.8266 7.88109 12.1648 7.64449 12.5512 7.5293C12.9376 7.41411 13.3513 7.42658 13.7299 7.56481C14.1086 7.70304 14.4317 7.95957 14.6507 8.29576C14.8527 8.60656 14.9583 8.96936 14.9544 9.33915C14.9544 12.2824 14.9544 15.2257 14.9544 18.1718C14.9514 18.6623 14.7521 19.1316 14.4003 19.4764C14.0486 19.8212 13.5731 20.0132 13.0786 20.0102C12.5841 20.0073 12.1111 19.8096 11.7635 19.4606C11.4159 19.1116 11.2224 18.64 11.2254 18.1494C11.2197 16.682 11.2254 15.2145 11.2254 13.7471Z" fill="#6A6F73"/>
<path d="M31.6532 13.7644C31.6532 12.2858 31.6532 10.8072 31.6532 9.33137C31.6477 8.97907 31.7438 8.63255 31.9301 8.33257C32.1164 8.03259 32.3852 7.79164 32.7048 7.63807C33.0245 7.4845 33.3817 7.42469 33.7345 7.46569C34.0872 7.50669 34.4209 7.64679 34.6961 7.8695C34.9161 8.03531 35.0935 8.25039 35.2137 8.49719C35.3339 8.74398 35.3936 9.01548 35.3879 9.28952C35.3879 12.2653 35.3879 15.2412 35.3879 18.217C35.3901 18.4588 35.3443 18.6987 35.2531 18.9229C35.1618 19.1471 35.027 19.3514 34.8562 19.5239C34.6854 19.6964 34.482 19.8339 34.2577 19.9285C34.0333 20.023 33.7924 20.0728 33.5487 20.075H33.5318C33.2809 20.0755 33.0325 20.026 32.8012 19.9295C32.5699 19.8331 32.3605 19.6915 32.1854 19.5134C32.0102 19.3352 31.8729 19.1239 31.7815 18.8922C31.6901 18.6604 31.6465 18.4128 31.6532 18.164C31.6532 16.6965 31.6532 15.2291 31.6532 13.7644Z" fill="#6A6F73"/>
<path d="M55.8387 13.7822C55.8387 15.2468 55.8387 16.7143 55.8387 18.179C55.8505 18.5251 55.7612 18.8672 55.5816 19.1642C55.402 19.4612 55.1397 19.7003 54.8262 19.8529C54.5353 20.0132 54.2042 20.0879 53.872 20.0681C53.5397 20.0484 53.22 19.935 52.9505 19.7413C52.3374 19.3367 52.1068 18.7369 52.1068 18.0199C52.1068 15.5091 52.1068 12.9982 52.1068 10.4874C52.1068 10.0661 52.0899 9.65045 52.1068 9.2236C52.1221 8.736 52.332 8.2744 52.6904 7.94034C53.0488 7.60628 53.5262 7.42713 54.0177 7.4423C54.5092 7.45746 54.9746 7.66571 55.3113 8.02122C55.648 8.37673 55.8286 8.85039 55.8133 9.33798C55.8387 10.8278 55.8387 12.3064 55.8387 13.7822Z" fill="#6A6F73"/>
<path d="M1.00005 16.3007V14.4371C0.997281 14.1942 1.04276 13.9531 1.13391 13.7277C1.22505 13.5022 1.36007 13.2968 1.53124 13.1231C1.70242 12.9494 1.90641 12.8108 2.13156 12.7153C2.35672 12.6198 2.59863 12.5693 2.84348 12.5665C3.08833 12.5638 3.33133 12.6089 3.5586 12.6993C3.78588 12.7897 3.99297 12.9237 4.16807 13.0935C4.34316 13.2633 4.48283 13.4657 4.57909 13.689C4.67535 13.9124 4.72632 14.1524 4.72909 14.3953C4.74783 15.66 4.74783 16.9247 4.72909 18.1894C4.73356 18.4348 4.68884 18.6786 4.59753 18.9067C4.50622 19.1348 4.37014 19.3426 4.19719 19.518C4.02424 19.6935 3.81787 19.8331 3.59007 19.9288C3.36227 20.0245 3.11757 20.0743 2.87019 20.0754C2.6207 20.0732 2.37413 20.022 2.14472 19.9246C1.91532 19.8273 1.70765 19.6858 1.53373 19.5084C1.35981 19.3309 1.22309 19.121 1.13149 18.8908C1.03988 18.6605 0.995207 18.4146 1.00005 18.1671C1.00005 17.545 1.00005 16.9228 1.00005 16.3007Z" fill="#6A6F73"/>
<path d="M45.6021 16.3069C45.6021 16.9402 45.6162 17.5735 45.6021 18.204C45.6066 18.6466 45.4502 19.076 45.1615 19.4136C44.8728 19.7511 44.4712 19.9742 44.0303 20.042C43.5893 20.1098 43.1385 20.0177 42.7604 19.7826C42.3823 19.5475 42.1023 19.1852 41.9715 18.7619C41.9117 18.559 41.8823 18.3484 41.8843 18.137C41.8843 16.8927 41.8843 15.6485 41.8843 14.4042C41.8763 13.9897 42.0094 13.5846 42.2623 13.2545C42.5152 12.9244 42.8729 12.6887 43.2777 12.5854C43.6824 12.4821 44.1104 12.5174 44.4925 12.6854C44.8745 12.8535 45.1882 13.1445 45.3828 13.5115C45.535 13.8094 45.6103 14.1401 45.6021 14.474C45.6049 15.0849 45.6021 15.6959 45.6021 16.3069Z" fill="#6A6F73"/>
<path d="M86.4925 16.3128C86.4925 16.9572 86.5094 17.6017 86.4925 18.2461C86.5059 18.7013 86.3485 19.1451 86.051 19.4917C85.7534 19.8384 85.3367 20.0631 84.8817 20.1225C84.4267 20.1819 83.9656 20.0717 83.5878 19.8132C83.21 19.5547 82.9423 19.1663 82.8366 18.7232C82.7835 18.5192 82.7579 18.309 82.7606 18.0983C82.7606 16.8987 82.7606 15.6962 82.7606 14.4966C82.7606 13.4504 83.385 12.6972 84.3299 12.5437C84.5952 12.5004 84.8669 12.5154 85.1258 12.5877C85.3847 12.66 85.6244 12.7878 85.828 12.9621C86.0316 13.1364 86.1941 13.3529 86.3041 13.5964C86.414 13.8399 86.4688 14.1043 86.4644 14.3711C86.4925 15.0239 86.4925 15.6795 86.4925 16.3128Z" fill="#6A6F73"/>
</svg>
