<svg width="95" height="40" viewBox="0 0 95 40" fill="none" xmlns="http://www.w3.org/2000/svg">
<g clip-path="url(#clip0_3861_4090)">
<mask id="mask0_3861_4090" style="mask-type:luminance" maskUnits="userSpaceOnUse" x="1" y="0" width="94" height="40">
<path d="M94.1904 0.5H1.19043V39.5H94.1904V0.5Z" fill="white"/>
</mask>
<g mask="url(#mask0_3861_4090)">
<path d="M31.0684 7.70499H3.2266V2.52393H31.0684V7.70499ZM33.0577 0.523438H1.23633V9.70043H33.0577V0.523438Z" fill="#6A6F73"/>
<path d="M3.22645 24.8729H1.2373V15.6934H3.22645V19.3197H6.78044V15.6934H8.76959V24.8729H6.78044V21.0701H3.22645V24.8729Z" fill="#6A6F73"/>
<path d="M11.8014 20.822H14.1707C14.1266 20.1471 13.8492 19.6767 13.0737 19.6767C12.4886 19.6767 11.9767 19.9268 11.8014 20.822ZM13.3076 24.992C11.2895 24.992 9.91504 23.7145 9.91504 21.6158C9.91504 19.5742 11.2605 18.165 13.0447 18.165C14.9897 18.165 15.955 19.4716 15.955 21.4246V22.159H11.8014C12.036 23.1713 12.8253 23.4353 13.6153 23.4353C14.3025 23.4353 14.7993 23.289 15.4134 22.9067H15.4872V24.4191C14.9607 24.8014 14.2142 24.992 13.3076 24.992Z" fill="#6A6F73"/>
<path d="M21.1321 21.0246L20.1082 24.8711H18.3681L16.3789 18.4138V18.3403H18.2804L19.3623 22.2021L20.3862 18.3403H21.9365L22.9749 22.2021L24.072 18.3403H25.9003V18.4138L23.9112 24.8711H22.1704L21.1321 21.0246Z" fill="#6A6F73"/>
<path d="M29.101 24.9744C27.5216 24.9744 26.8779 24.3432 26.8779 22.8606V15.6499H28.8084V22.7276C28.8084 23.1828 28.9837 23.3443 29.3639 23.3443C29.4957 23.3443 29.6861 23.3006 29.8027 23.2563H29.8323V24.8567C29.6716 24.9149 29.3935 24.9744 29.101 24.9744Z" fill="#6A6F73"/>
<path d="M32.279 20.822H34.6483C34.6042 20.1471 34.3267 19.6767 33.5513 19.6767C32.9668 19.6767 32.4542 19.9268 32.279 20.822ZM33.7852 24.992C31.767 24.992 30.3926 23.7145 30.3926 21.6158C30.3926 19.5742 31.738 18.165 33.5223 18.165C35.4673 18.165 36.4325 19.4716 36.4325 21.4246V22.159H32.279C32.5129 23.1713 33.3029 23.4353 34.0922 23.4353C34.7801 23.4353 35.2769 23.289 35.8916 22.9067H35.9647V24.4191C35.4383 24.8014 34.6924 24.992 33.7852 24.992Z" fill="#6A6F73"/>
<path d="M44.384 18.3393H45.8171V19.8954H44.384V22.553C44.384 23.1259 44.6034 23.3905 45.1885 23.3905C45.3493 23.3905 45.5542 23.3753 45.7736 23.3019H45.8171V24.8289C45.5687 24.9175 45.1885 25.0194 44.6331 25.0194C43.0676 25.0194 42.4535 24.3003 42.4535 22.641V19.8954H39.982V22.553C39.982 23.1259 40.2014 23.3905 40.7859 23.3905C40.9473 23.3905 41.1522 23.3753 41.3716 23.3019H41.4151V24.8289C41.1667 24.9175 40.7859 25.0194 40.2311 25.0194C38.6656 25.0194 38.0515 24.3003 38.0515 22.641V19.8954H37.0566V18.3393H38.0515V16.5483H39.982V18.3393H42.4535V16.5483H44.384V18.3393Z" fill="#6A6F73"/>
<path d="M52.3028 20.1629C53.3128 20.1629 53.7945 19.5906 53.7945 18.7683C53.7945 17.9162 53.3128 17.3439 52.3028 17.3439H51.045V20.1629H52.3028ZM55.8133 18.7683C55.8133 20.7656 54.4824 21.8513 52.4636 21.8513H51.045V24.8318H49.0571V15.6523H52.4636C54.4824 15.6523 55.8133 16.7387 55.8133 18.7651" fill="#6A6F73"/>
<path d="M60.0701 22.7975V22.2397C59.7776 22.0789 59.398 22.0201 59.0027 22.0201C58.3741 22.0201 57.9939 22.2543 57.9939 22.7829C57.9939 23.3267 58.3741 23.5616 58.9441 23.5616C59.485 23.5616 59.8948 23.2824 60.0701 22.7975ZM60.1287 24.2073C59.7044 24.7214 59.0765 24.9708 58.4025 24.9708C57.1308 24.9708 56.0918 24.1934 56.0918 22.812C56.0918 21.5351 57.1308 20.6836 58.6219 20.6836C59.0897 20.6836 59.5733 20.7571 60.0701 20.9033V20.7868C60.0701 20.0816 59.6754 19.7739 58.6377 19.7739C57.9788 19.7739 57.3502 19.9638 56.8086 20.2728H56.7361V18.7161C57.233 18.423 58.1112 18.1729 58.9731 18.1729C60.9332 18.1729 62.0006 19.1124 62.0006 20.7571V24.8531H60.1287V24.2073Z" fill="#6A6F73"/>
<path d="M62.9453 21.5823C62.9453 19.4824 64.4231 18.1611 66.3537 18.1611C67.0409 18.1611 67.684 18.308 68.1669 18.66V20.3193H68.0931C67.6688 19.9964 67.172 19.8052 66.6021 19.8052C65.6368 19.8052 64.9055 20.4668 64.9055 21.5823C64.9055 22.6977 65.6368 23.3441 66.6021 23.3441C67.172 23.3441 67.6688 23.1529 68.0931 22.8294H68.1669V24.4887C67.684 24.8413 67.0409 24.9882 66.3537 24.9882C64.4231 24.9882 62.9453 23.6822 62.9453 21.5823Z" fill="#6A6F73"/>
<path d="M71.3181 21.8862V24.8515H69.3882V15.6719H71.3181V20.8986L73.2637 18.3144H75.4571V18.3878L73.1174 21.3537L75.4571 24.7749V24.8483H73.2486L71.3181 21.883" fill="#6A6F73"/>
<path d="M79.7911 22.7975V22.2397C79.4992 22.0789 79.1184 22.0201 78.7237 22.0201C78.0952 22.0201 77.715 22.2543 77.715 22.7829C77.715 23.3267 78.0952 23.5616 78.6645 23.5616C79.2067 23.5616 79.6159 23.2824 79.7911 22.7975ZM79.8498 24.2073C79.4255 24.7214 78.7963 24.9708 78.1242 24.9708C76.8512 24.9708 75.8135 24.1934 75.8135 22.812C75.8135 21.5351 76.8512 20.6836 78.3442 20.6836C78.812 20.6836 79.2937 20.7571 79.7911 20.9033V20.7868C79.7911 20.0816 79.3965 19.7739 78.3581 19.7739C77.7005 19.7739 77.0706 19.9638 76.5297 20.2728H76.4566V18.7161C76.954 18.423 77.8316 18.1729 78.6941 18.1729C80.6549 18.1729 81.7223 19.1124 81.7223 20.7571V24.8531H79.8498V24.2073Z" fill="#6A6F73"/>
<path d="M84.9866 19.3534C85.3372 18.6336 85.8497 18.2227 86.5666 18.2227C86.8295 18.2227 87.0924 18.2816 87.1939 18.3405V20.1903H87.1214C86.902 20.1017 86.6391 20.0434 86.2734 20.0434C85.6738 20.0434 85.206 20.3961 85.0446 21.0709V24.8301H83.1147V18.2968H84.9866V19.3534Z" fill="#6A6F73"/>
<path d="M92.3002 22.6457V20.5458C91.9787 20.076 91.555 19.8709 91.0714 19.8709C90.2241 19.8709 89.6535 20.4882 89.6535 21.6036C89.6535 22.7191 90.2241 23.3212 91.0714 23.3212C91.555 23.3212 91.9787 23.1154 92.3002 22.6457ZM92.3582 24.1878C91.9491 24.7165 91.3053 25.0096 90.4284 25.0096C88.7608 25.0096 87.6934 23.4832 87.6934 21.6036C87.6934 19.7241 88.7608 18.1825 90.4284 18.1825C91.2763 18.1825 91.8904 18.4472 92.3002 18.9315V15.687H94.2308V24.8602H92.3582V24.1853" fill="#6A6F73"/>
<path d="M1.25928 27.8613H6.90455V28.9768H2.53158V31.7806H6.49474V32.8676H2.53158V35.9215H6.90455V37.037H1.25928V27.8638" fill="#6A6F73"/>
<path d="M11.5485 30.4448C12.996 30.4448 13.8005 31.3995 13.8005 32.9695V37.037H12.5869V32.9993C12.5869 32.1624 12.1626 31.5603 11.2414 31.5603C10.4811 31.5603 9.83737 32.0452 9.61796 32.7347V37.037H8.4043V30.5797H9.61796V31.5192C9.99814 30.9171 10.6419 30.4474 11.5485 30.4474" fill="#6A6F73"/>
<path d="M17.0464 30.5465H18.6989V31.5892H17.0464V35.0685C17.0464 35.8023 17.4266 36.0523 18.1138 36.0523C18.3035 36.0523 18.5085 36.0232 18.6547 35.9643H18.6989V37.0064C18.5236 37.0798 18.2745 37.1387 17.9385 37.1387C16.4317 37.1387 15.8327 36.448 15.8327 35.1863V31.5892H14.7212V30.5465H15.8327V28.8296H17.0464V30.5465Z" fill="#6A6F73"/>
<path d="M20.7285 33.1796H23.9313C23.8878 32.2255 23.4194 31.4918 22.4251 31.4918C21.504 31.4918 20.9038 32.1819 20.7285 33.1796ZM22.6445 37.1736C20.7575 37.1736 19.4707 35.9107 19.4707 33.8848C19.4707 31.8584 20.6699 30.4492 22.4106 30.4492C24.1803 30.4492 25.1015 31.7267 25.1015 33.6202V34.1786H20.6844C20.8161 35.4852 21.6503 36.1164 22.8053 36.1164C23.5221 36.1164 24.0334 35.955 24.604 35.5289H24.6482V36.6013C24.1217 37.0122 23.4339 37.1736 22.6445 37.1736Z" fill="#6A6F73"/>
<path d="M27.7898 31.5579C28.0679 30.8679 28.6826 30.457 29.3837 30.457C29.6623 30.457 29.9108 30.5007 30.0129 30.5596V31.763H29.9694C29.7935 31.6757 29.5009 31.6314 29.2084 31.6314C28.5508 31.6314 27.9947 32.0713 27.7898 32.8057V37.0194H26.5762V30.5621H27.7898V31.5605" fill="#6A6F73"/>
<path d="M33.8931 36.0667C35.0923 36.0667 35.7946 35.1127 35.7946 33.8054C35.7946 32.5139 35.0923 31.5453 33.8931 31.5453C33.2349 31.5453 32.6208 31.9416 32.2993 32.5722V35.0544C32.6208 35.685 33.2349 36.0667 33.8931 36.0667ZM34.098 30.4438C36.0134 30.4438 37.0373 32.0151 37.0373 33.8054C37.0373 35.5976 36.0134 37.1683 34.098 37.1683C33.308 37.1683 32.6353 36.7574 32.2993 36.3161V39.5176H31.085V30.5786H32.2993V31.3123C32.6353 30.8572 33.308 30.4463 34.098 30.4463" fill="#6A6F73"/>
<path d="M39.6932 31.5579C39.9706 30.8679 40.5853 30.457 41.287 30.457C41.565 30.457 41.8134 30.5007 41.9156 30.5596V31.763H41.8721C41.6968 31.6757 41.4043 31.6314 41.1117 31.6314C40.4535 31.6314 39.8981 32.0713 39.6932 32.8057V37.0194H38.4795V30.5621H39.6932V31.5605" fill="#6A6F73"/>
<path d="M43.6778 27.9634C44.1021 27.9634 44.4527 28.3008 44.4527 28.7269C44.4527 29.1529 44.1021 29.4903 43.6778 29.4903C43.2686 29.4903 42.9023 29.1529 42.9023 28.7269C42.9023 28.3008 43.2686 27.9634 43.6778 27.9634Z" fill="#6A6F73"/>
<path d="M43.0728 37.0288H44.2873V30.5664H43.0728V37.0288Z" fill="#6A6F73"/>
<path d="M48.621 33.2312C49.5422 33.5243 50.5654 33.9061 50.5654 35.1393C50.5654 36.4611 49.4835 37.1366 48.0946 37.1366C47.246 37.1366 46.398 36.9309 45.915 36.5491V35.3893H45.9737C46.5153 35.8882 47.3191 36.1085 48.0795 36.1085C48.7667 36.1085 49.3814 35.8439 49.3814 35.2862C49.3814 34.7139 48.8701 34.5815 47.8601 34.2441C46.9534 33.9504 45.9447 33.6123 45.9447 32.3943C45.9447 31.1459 46.9679 30.4121 48.2699 30.4121C49.0302 30.4121 49.7029 30.5736 50.2439 30.9408V32.1157H50.2004C49.6746 31.6897 49.0592 31.4396 48.2989 31.4396C47.5385 31.4396 47.1142 31.7777 47.1142 32.2329C47.1142 32.7469 47.582 32.8931 48.621 33.2312Z" fill="#6A6F73"/>
<path d="M52.8579 33.1796H56.0601C56.0166 32.2255 55.5488 31.4918 54.5539 31.4918C53.6327 31.4918 53.0332 32.1819 52.8579 33.1796ZM54.7733 37.1736C52.8869 37.1736 51.6001 35.9107 51.6001 33.8848C51.6001 31.8584 52.7993 30.4492 54.5394 30.4492C56.3097 30.4492 57.2302 31.7267 57.2302 33.6202V34.1786H52.8138C52.9455 35.4852 53.779 36.1164 54.934 36.1164C55.6515 36.1164 56.1628 35.955 56.7328 35.5289H56.7769V36.6013C56.2511 37.0122 55.5633 37.1736 54.7733 37.1736Z" fill="#6A6F73"/>
</g>
</g>
<defs>
<clipPath id="clip0_3861_4090">
<rect width="94" height="40" fill="white" transform="translate(0.5)"/>
</clipPath>
</defs>
</svg>
