<svg width="49" height="48" viewBox="0 0 49 48" fill="none" xmlns="http://www.w3.org/2000/svg">
<g clip-path="url(#clip0_3861_4120)">
<mask id="mask0_3861_4120" style="mask-type:luminance" maskUnits="userSpaceOnUse" x="0" y="0" width="49" height="48">
<path d="M48.3333 0H0.333344V48H48.3333V0Z" fill="white"/>
</mask>
<g mask="url(#mask0_3861_4120)">
<path fill-rule="evenodd" clip-rule="evenodd" d="M24.3241 0.712891C11.4582 0.712891 1.02866 11.143 1.02866 24.0084C1.02866 36.874 11.4584 47.3039 24.3241 47.3039C37.1892 47.3039 47.6196 36.874 47.6196 24.0084C47.6196 11.1432 37.1892 0.712891 24.3241 0.712891ZM24.3241 45.2152C12.6117 45.2152 3.11731 35.7207 3.11731 24.0084C3.11731 12.2965 12.6117 2.8018 24.3241 2.8018C36.036 2.8018 45.5309 12.2965 45.5309 24.0084C45.5309 35.7207 36.036 45.2152 24.3241 45.2152Z" fill="#6A6F73"/>
<path fill-rule="evenodd" clip-rule="evenodd" d="M19.6814 8.1656C21.1898 7.72526 22.7532 7.50245 24.3245 7.50391C25.9345 7.50391 27.4909 7.73452 28.9622 8.16435L24.3245 18.4445L19.6814 8.1656Z" fill="#6A6F73"/>
<path fill-rule="evenodd" clip-rule="evenodd" d="M33.1841 10.0801C34.9222 11.1889 36.4387 12.6116 37.6561 14.2756L30.0441 31.1203L27.1067 24.5889H21.5413L18.6041 31.12L11.0031 14.2599C12.2181 12.6026 13.7304 11.1853 15.4631 10.0803L21.5413 23.5646H27.1256L33.1841 10.0801ZM8.37581 19.7369C8.00423 21.1305 7.81661 22.5666 7.81772 24.0089C7.81772 30.4775 11.538 36.0766 16.9558 38.7839L8.37581 19.7369Z" fill="#6A6F73"/>
<path fill-rule="evenodd" clip-rule="evenodd" d="M19.7581 39.8758C21.2428 40.3017 22.7799 40.517 24.3244 40.5156C25.9068 40.5156 27.4369 40.2927 28.8852 39.8775L24.3244 29.7485L19.7581 39.8758ZM31.6919 38.7843C37.1099 36.077 40.8302 30.478 40.8302 24.0093C40.8302 22.5449 40.6394 21.1252 40.2821 19.7734L31.6919 38.7843Z" fill="#6A6F73"/>
</g>
</g>
<defs>
<clipPath id="clip0_3861_4120">
<rect width="48" height="48" fill="white" transform="translate(0.333344)"/>
</clipPath>
</defs>
</svg>
