<svg width="554" height="644" viewBox="0 0 554 644" fill="none" xmlns="http://www.w3.org/2000/svg">
<g clip-path="url(#clip0_5537_3121)">
<path d="M214.569 528.571C203.546 517.481 187.571 511.121 170.742 511.121L170.093 511.123C159.007 511.127 148.12 508.259 138.544 502.812L137.547 502.246L138.35 501.439C142.695 497.054 146.323 492.044 149.107 486.583C147.13 488.382 144.772 489.734 142.199 490.545C139.627 491.355 136.903 491.604 134.221 491.274C131.389 490.945 128.671 489.995 126.269 488.494C123.868 486.994 121.846 484.983 120.355 482.611C114.473 473.302 107.462 460.092 107.462 450.029C107.471 441.524 109.297 433.113 112.823 425.334C116.349 417.554 121.498 410.577 127.941 404.846C132.021 401.258 135.279 396.872 137.504 391.973C139.729 387.074 140.871 381.773 140.854 376.415L140.851 375.653C140.85 368.598 141.734 361.571 143.483 354.726L143.66 354.035L144.389 354.06C149.091 354.216 153.794 353.831 158.404 352.914C154.08 352.397 149.851 351.3 145.835 349.654L145.051 349.344L145.317 348.56C163.665 337.479 205.082 343.217 229.121 289.567C248.614 246.064 317.391 328.185 317.391 375.653C317.391 380.496 312.477 386.897 316.156 390.098C355.923 424.705 328.484 446.927 319.833 469.288C317.781 474.593 322.231 480.417 322.231 486.157C322.231 487.131 322.206 488.136 322.155 489.145L322.079 490.696L320.753 489.836C318.13 488.159 315.698 486.214 313.5 484.033C315.781 489.152 316.855 494.705 316.645 500.283C316.435 505.861 314.946 511.321 312.286 516.264C308.119 523.936 304.087 529.429 300.303 532.589C288.181 542.707 272.554 547.927 256.618 547.18C240.682 546.433 225.641 539.776 214.569 528.571Z" fill="#E6E6E6"/>
<path d="M281.147 644C281.418 644 281.68 643.904 281.884 643.731C282.089 643.558 282.223 643.318 282.261 643.056C282.309 642.728 286.996 609.754 282.786 565.929C278.899 525.456 266.414 467.16 229.014 419.283C228.925 419.168 228.813 419.071 228.685 418.998C228.557 418.926 228.416 418.878 228.269 418.859C228.122 418.839 227.973 418.848 227.83 418.885C227.687 418.922 227.553 418.986 227.435 419.074C227.317 419.161 227.218 419.27 227.144 419.395C227.069 419.52 227.021 419.658 227.001 419.801C226.982 419.944 226.991 420.09 227.029 420.229C227.067 420.369 227.133 420.5 227.222 420.614C264.299 468.078 276.683 525.946 280.543 566.134C284.729 609.704 280.078 642.421 280.031 642.747C280.008 642.902 280.02 643.061 280.066 643.212C280.111 643.363 280.19 643.503 280.296 643.622C280.402 643.741 280.532 643.836 280.679 643.901C280.826 643.966 280.986 644 281.147 644Z" fill="#3F3D56"/>
<path d="M250.627 486.816C250.865 486.816 251.097 486.743 251.289 486.606C251.482 486.47 251.625 486.278 251.699 486.057C251.773 485.836 251.773 485.599 251.699 485.378C251.626 485.157 251.483 484.965 251.29 484.828C240.633 477.792 229.121 472.076 217.018 467.81C198.11 461.058 169.357 454.936 139.757 464.126C139.615 464.169 139.484 464.24 139.371 464.333C139.258 464.426 139.164 464.54 139.096 464.668C139.028 464.796 138.986 464.936 138.974 465.08C138.961 465.224 138.978 465.369 139.023 465.507C139.067 465.644 139.14 465.772 139.235 465.882C139.331 465.993 139.448 466.084 139.58 466.15C139.711 466.216 139.855 466.256 140.002 466.268C140.15 466.28 140.299 466.264 140.44 466.22C169.434 457.219 197.666 463.239 216.244 469.874C228.152 474.066 239.48 479.686 249.966 486.606C250.158 486.742 250.389 486.816 250.627 486.816Z" fill="#3F3D56"/>
<path d="M302.178 361.573C302.196 361.342 302.137 361.111 302.012 360.914C301.886 360.717 301.7 360.563 301.48 360.476C301.259 360.388 301.016 360.371 300.785 360.426C300.554 360.482 300.347 360.608 300.194 360.785C292.232 370.646 285.558 381.435 280.325 392.903C272.059 410.813 263.729 438.346 270.993 467.806C271.028 467.947 271.09 468.079 271.177 468.196C271.264 468.313 271.374 468.412 271.5 468.487C271.626 468.563 271.767 468.613 271.913 468.636C272.059 468.658 272.208 468.653 272.352 468.619C272.496 468.585 272.632 468.524 272.751 468.439C272.871 468.354 272.973 468.247 273.05 468.124C273.127 468.001 273.178 467.864 273.201 467.721C273.224 467.578 273.218 467.433 273.183 467.292C266.068 438.436 274.257 411.402 282.379 393.805C287.523 382.521 294.086 371.905 301.916 362.201C302.069 362.024 302.161 361.804 302.178 361.573Z" fill="#3F3D56"/>
<path d="M519.435 642.837H429.77L429.385 642.155C428.238 640.127 427.131 637.978 426.097 635.769C416.861 616.482 412.957 594.422 409.512 574.959L406.919 560.289C406.605 558.512 406.841 556.684 407.598 555.04C408.355 553.395 409.598 552.008 411.168 551.056C412.738 550.105 414.563 549.631 416.41 549.698C418.257 549.764 420.042 550.366 421.536 551.427C435.163 561.1 448.795 570.762 462.432 580.416C467.596 584.081 473.493 588.322 479.141 592.906C479.686 590.325 480.256 587.735 480.826 585.182C481.219 583.419 482.142 581.811 483.477 580.563C484.813 579.315 486.5 578.484 488.322 578.177C490.145 577.869 492.02 578.1 493.707 578.838C495.395 579.576 496.818 580.788 497.795 582.32L508.286 598.761C515.938 610.768 522.691 622.599 521.315 635.36C521.322 635.515 521.31 635.671 521.28 635.823C521.004 637.919 520.494 639.98 519.757 641.967L519.435 642.837Z" fill="#F0F0F0"/>
<path d="M477.661 298.983L460.356 236.506C459.615 233.861 457.837 231.606 455.407 230.229C452.977 228.851 450.088 228.461 447.366 229.142C445.957 229.494 444.637 230.123 443.485 230.989C442.334 231.855 441.375 232.941 440.668 234.181C439.961 235.42 439.52 236.787 439.372 238.198C439.224 239.609 439.373 241.035 439.808 242.388L459.823 306.749L470.295 346.358C468.77 347.493 467.64 349.06 467.06 350.844C466.479 352.628 466.475 354.543 467.049 356.329C467.623 358.115 468.747 359.686 470.268 360.827C471.789 361.969 473.633 362.626 475.55 362.709C477.467 362.793 479.364 362.298 480.983 361.294C482.602 360.289 483.865 358.822 484.599 357.093C485.334 355.364 485.505 353.456 485.09 351.629C484.674 349.801 483.692 348.143 482.277 346.879L477.661 298.983Z" fill="#A0616A"/>
<path d="M332.045 285.527L384.624 246.057C386.846 244.378 388.303 241.914 388.68 239.197C389.056 236.48 388.323 233.727 386.637 231.533C385.765 230.398 384.665 229.448 383.404 228.741C382.144 228.034 380.749 227.585 379.304 227.421C377.86 227.257 376.396 227.382 375.003 227.788C373.61 228.194 372.316 228.872 371.2 229.782L317.872 272.415L284.349 296.989C282.69 296.048 280.774 295.628 278.862 295.786C276.95 295.944 275.134 296.673 273.661 297.873C272.188 299.072 271.13 300.686 270.63 302.493C270.129 304.3 270.211 306.213 270.865 307.973C271.518 309.733 272.711 311.254 274.282 312.33C275.852 313.405 277.724 313.983 279.643 313.985C281.562 313.987 283.435 313.412 285.007 312.339C286.58 311.266 287.776 309.747 288.432 307.989L332.045 285.527Z" fill="#A0616A"/>
<path d="M374.899 294.601L372.581 345.091L445.351 329.663C439.157 309.375 434.946 305.915 439.6 291.796L374.899 294.601Z" fill="#A0616A"/>
<path d="M419.643 202.039H395.396L384.983 219.42L380.021 219.152C377.594 219.022 375.166 219.375 372.884 220.191C370.602 221.007 368.514 222.268 366.749 223.898C364.984 225.527 363.577 227.491 362.616 229.669C361.656 231.846 361.16 234.192 361.16 236.563L367.273 245.806C367.273 245.806 356.34 264.392 372.089 273.536C372.089 273.536 369.28 290.764 372.089 290.579C374.898 290.393 381.369 286.887 374.898 290.393C368.428 293.9 368.911 294.371 369.748 295.187L370.585 296.003L438.619 307.147C438.619 307.147 440.609 294.282 440.823 291.987C441.038 289.692 439.6 295.302 441.038 289.692C442.475 284.082 444.632 286.186 442.475 284.082C440.319 281.978 456.45 255.915 449.822 245.805L460.448 235.696C460.448 225.998 444.481 218.137 434.539 218.137H433.266L419.643 202.039Z" fill="#E6E6E6"/>
<path d="M361.222 623.372H351.407L346.739 586.447L361.223 586.448L361.222 623.372Z" fill="#A0616A"/>
<path d="M331.6 637.497C331.605 638.569 332.043 639.597 332.82 640.356C333.597 641.115 334.649 641.544 335.748 641.551H354.223L354.795 640.394L357.409 635.134L358.421 640.394L358.645 641.551H365.613L365.513 640.386L363.655 618.651L361.225 618.505L350.722 617.898L348.142 617.744V624.234C346.184 626.265 330.821 633.945 331.6 637.497Z" fill="#2F2E41"/>
<path d="M507.077 598.297L498.823 603.476L474.416 574.886L486.599 567.243L507.077 598.297Z" fill="#A0616A"/>
<path d="M490 625.808C490.598 626.708 491.537 627.34 492.611 627.569C493.685 627.797 494.808 627.603 495.737 627.029L511.274 617.279L511.113 616.004L510.394 610.201L514.162 614.091L514.992 614.945L520.853 611.268L520.123 610.34L506.505 593.042L504.38 594.202L495.21 599.234L492.955 600.466L496.555 605.924C496.035 608.666 487.373 623.232 490 625.808Z" fill="#2F2E41"/>
<path d="M552.859 643.512L248.967 643.8C248.664 643.799 248.374 643.68 248.16 643.471C247.946 643.261 247.826 642.977 247.826 642.681C247.826 642.385 247.946 642.102 248.16 641.892C248.374 641.682 248.664 641.564 248.967 641.562L552.859 641.273C553.162 641.275 553.452 641.393 553.666 641.603C553.88 641.813 554 642.097 554 642.392C554 642.688 553.88 642.972 553.666 643.182C553.452 643.392 553.162 643.51 552.859 643.512Z" fill="#CACACA"/>
<path d="M444.211 323.96C444.211 323.96 397.695 347.961 373.091 331.586C373.091 331.586 367.71 357.012 365.553 359.116C363.396 361.22 359.96 362.136 362.397 364.483C364.834 366.83 366.19 369.999 361.558 374.024C356.926 378.05 352.307 376.773 356.773 380.917C361.239 385.062 343.267 486.744 343.267 486.744C343.267 486.744 346.142 581.303 343.267 584.163C340.391 587.023 336.547 587.663 340.267 591.2C343.986 594.736 343.986 591.993 343.986 596.871V601.749L345.687 606.597H369.029C369.029 606.597 374.662 600.214 369.029 594.67C363.396 589.126 370.744 587.609 372.462 582.407C374.18 577.205 377.055 582.815 374.18 577.205C371.304 571.595 369.923 572.663 369.895 568.973C369.866 565.284 412.282 420.826 412.282 420.826L417.419 500.782L479.212 588.346L497.401 575.04C497.401 575.04 484.158 556.856 487.255 554.356C490.352 551.856 478.128 548.72 481.983 545.901C485.837 543.081 476.558 540.239 480.056 536.501C483.553 532.763 475.237 523.341 470.419 523.341C465.601 523.341 458.839 507.636 458.839 507.636L468.933 383.566L444.211 323.96Z" fill="#2F2E41"/>
<path d="M394.908 151.003C394.579 151.425 391.956 151.198 388.802 150.748C382.567 149.86 381.717 150.916 377.055 155.052C370.302 161.043 374.142 197.588 370.823 205.507L369.751 206.277C371.878 205.881 373.966 205.311 375.994 204.573C377.14 201.047 378.289 197.509 379.446 193.986C380.537 196.727 381.224 199.606 381.484 202.536C383.089 201.919 384.685 200.409 391.393 198.385C394.77 196.15 419.205 193.903 422.346 192.919C430.318 166.46 417.471 155.76 394.908 151.003Z" fill="#2F2E41"/>
<path d="M403.159 191.803C416.054 191.803 426.509 181.606 426.509 169.027C426.509 156.447 416.054 146.25 403.159 146.25C390.263 146.25 379.808 156.447 379.808 169.027C379.808 181.606 390.263 191.803 403.159 191.803Z" fill="#A0616A"/>
<path d="M417.859 148.996C416.543 148.806 415.277 148.373 414.128 147.719C413.558 147.384 413.097 146.899 412.796 146.32C412.496 145.74 412.368 145.091 412.428 144.444C412.716 142.826 414.592 141.859 416.273 141.958C417.946 142.193 419.536 142.821 420.906 143.787C420.756 142.223 420.071 140.754 418.961 139.615C417.852 138.477 416.382 137.735 414.788 137.509C416.999 137.393 419.297 137.29 421.341 138.12C423.386 138.949 425.089 141.003 424.72 143.132C428.157 142.7 431.546 145.036 432.965 148.12C434.384 151.203 434.103 154.825 432.969 158.019C432.857 158.508 432.639 158.968 432.329 159.367C432.019 159.767 431.625 160.097 431.172 160.335C430.016 160.763 428.771 160.045 427.769 159.337C422.534 155.64 417.769 151.348 413.575 146.551" fill="#2F2E41"/>
<path d="M428.04 193.242C427.05 193.697 427.566 195.388 426.797 196.145C426.463 196.466 426.06 196.71 425.618 196.861C425.502 195.449 425.165 194.063 424.618 192.751C424.518 192.513 424.352 192.246 424.093 192.267C423.792 192.303 423.712 192.688 423.705 192.976C423.644 194.402 423.32 195.806 422.749 197.12C422.742 197.134 422.735 197.155 422.728 197.169C422.505 197.162 422.275 197.155 422.059 197.148C420.391 197.085 416.696 192.906 415.876 194.322C418.766 189.322 422.289 181.805 422.828 176.09C423.015 174.893 422.924 173.671 422.562 172.513C422.373 171.937 422.019 171.426 421.541 171.041C421.063 170.656 420.482 170.412 419.866 170.339C419.563 170.326 419.26 170.378 418.979 170.492C418.699 170.606 418.447 170.779 418.243 170.999C418.039 171.219 417.888 171.48 417.799 171.763C417.711 172.047 417.687 172.346 417.731 172.639L417.314 172.583C413.447 169.512 416.782 164.175 412.282 162.065C410.758 161.349 401.426 163.741 399.78 163.32C399.745 161.628 399.392 159.957 398.738 158.39C398.637 158.152 398.472 157.885 398.213 157.906C397.911 157.941 397.832 158.327 397.825 158.614C397.764 160.041 397.44 161.445 396.869 162.759C394.588 162.443 392.266 162.562 390.032 163.109C388.062 163.614 386.193 164.484 384.216 164.947C383.239 165.239 382.21 165.334 381.194 165.225C380.178 165.117 379.196 164.807 378.306 164.316C375.797 162.675 375.359 159.042 376.61 156.363C377.515 154.644 378.739 153.104 380.219 151.819C381.347 150.753 382.519 149.73 383.691 148.706C384.741 147.787 385.79 146.868 386.84 145.95C388.161 144.737 389.569 143.617 391.053 142.598C393.421 141.083 396.083 140.057 398.873 139.582C401.663 139.107 404.523 139.193 407.278 139.835C410.585 140.606 415.006 139.519 418.033 141.027C419.615 141.819 423.116 144.856 424.503 145.936C428.055 148.692 425.651 146.446 429.536 148.04C438.798 151.839 434.702 190.183 428.04 193.242Z" fill="#2F2E41"/>
<path d="M169.501 359.487C249.476 359.487 314.309 296.246 314.309 218.234C314.309 140.223 249.476 76.9817 169.501 76.9817C89.5252 76.9817 24.6921 140.223 24.6921 218.234C24.6921 296.246 89.5252 359.487 169.501 359.487Z" fill="white"/>
<path d="M169.501 360.897C88.8565 360.897 23.2471 296.898 23.2471 218.234C23.2471 139.57 88.8565 75.5717 169.501 75.5717C250.146 75.5717 315.755 139.57 315.755 218.234C315.755 296.898 250.146 360.897 169.501 360.897ZM169.501 78.3916C90.4506 78.3916 26.138 141.125 26.138 218.234C26.138 295.343 90.4506 358.077 169.501 358.077C248.552 358.077 312.864 295.343 312.864 218.234C312.864 141.125 248.552 78.3916 169.501 78.3916Z" fill="#6C63FF"/>
<path d="M149.746 291.75C147.245 291.75 144.779 291.182 142.542 290.091C140.306 289 138.36 287.416 136.861 285.464L97.3545 234.082C96.0854 232.431 95.162 230.553 94.6371 228.554C94.1122 226.555 93.996 224.475 94.2953 222.432C94.5945 220.39 95.3032 218.425 96.381 216.649C97.4588 214.874 98.8845 213.323 100.577 212.085C102.269 210.847 104.195 209.946 106.244 209.434C108.293 208.922 110.425 208.809 112.519 209.101C114.613 209.393 116.628 210.084 118.448 211.135C120.268 212.187 121.858 213.577 123.127 215.228L148.973 248.841L215.356 151.713C217.727 148.249 221.411 145.845 225.599 145.029C229.787 144.213 234.135 145.053 237.689 147.364C241.242 149.674 243.709 153.267 244.548 157.351C245.387 161.436 244.528 165.678 242.162 169.145L163.15 284.753C161.72 286.844 159.798 288.57 157.544 289.786C155.29 291.003 152.769 291.674 150.194 291.745C150.044 291.747 149.895 291.75 149.746 291.75Z" fill="#6C63FF"/>
<path d="M318.696 85.8073C319.099 83.1068 316.199 80.4597 312.219 79.8949C308.24 79.33 304.687 81.0614 304.284 83.7619C303.881 86.4625 306.781 89.1096 310.761 89.6744C314.74 90.2393 318.293 88.5079 318.696 85.8073Z" fill="#E6E6E6"/>
<path d="M366.079 81.2975C366.482 78.5969 363.582 75.9499 359.602 75.385C355.623 74.8202 352.07 76.5515 351.667 79.2521C351.264 81.9526 354.164 84.5997 358.144 85.1645C362.123 85.7294 365.676 83.998 366.079 81.2975Z" fill="#3F3D56"/>
<path d="M305.721 48.3887C306.123 45.6882 303.224 43.0411 299.244 42.4763C295.264 41.9115 291.711 43.6428 291.309 46.3433C290.906 49.0439 293.805 51.691 297.785 52.2559C301.765 52.8207 305.318 51.0893 305.721 48.3887Z" fill="#FF6584"/>
<path d="M285.132 33.0614C285.151 30.5822 283.733 28.5618 281.965 28.5487C280.197 28.5357 278.748 30.5349 278.729 33.0141C278.71 35.4934 280.128 37.5137 281.896 37.5268C283.664 37.5398 285.113 35.5406 285.132 33.0614Z" fill="#E6E6E6"/>
<path d="M278.149 4.51279C278.169 2.03357 276.751 0.0131883 274.983 0.000146683C273.215 -0.0128949 271.766 1.98634 271.747 4.46556C271.727 6.94478 273.145 8.96516 274.913 8.9782C276.681 8.99125 278.13 6.99201 278.149 4.51279Z" fill="#3F3D56"/>
<path d="M332.446 54.7562C332.465 52.277 331.048 50.2566 329.279 50.2436C327.511 50.2305 326.062 52.2298 326.043 54.709C326.024 57.1882 327.442 59.2086 329.21 59.2216C330.978 59.2347 332.427 57.2354 332.446 54.7562Z" fill="#E6E6E6"/>
<path d="M309.548 65.9081C309.567 63.4289 308.149 61.4085 306.381 61.3955C304.613 61.3824 303.164 63.3817 303.145 65.8609C303.126 68.3401 304.544 70.3604 306.312 70.3735C308.08 70.3865 309.529 68.3873 309.548 65.9081Z" fill="#FF6584"/>
<path d="M341.423 86.5196C341.442 84.0403 340.024 82.02 338.256 82.0069C336.488 81.9939 335.039 83.9931 335.02 86.4723C335.001 88.9516 336.418 90.9719 338.186 90.9849C339.954 90.998 341.403 88.9988 341.423 86.5196Z" fill="#3F3D56"/>
<path d="M46.9498 420.439C47.3526 417.738 44.4529 415.091 40.4731 414.526C36.4933 413.961 32.9405 415.693 32.5377 418.393C32.1349 421.094 35.0346 423.741 39.0144 424.306C42.9941 424.871 46.547 423.139 46.9498 420.439Z" fill="#E6E6E6"/>
<path d="M94.333 415.929C94.7358 413.228 91.8362 410.581 87.8564 410.016C83.8766 409.451 80.3238 411.183 79.921 413.883C79.5182 416.584 82.4179 419.231 86.3977 419.796C90.3774 420.361 93.9302 418.629 94.333 415.929Z" fill="#3F3D56"/>
<path d="M33.9742 383.02C34.377 380.32 31.4773 377.673 27.4975 377.108C23.5177 376.543 19.9649 378.274 19.5621 380.975C19.1593 383.675 22.059 386.323 26.0388 386.887C30.0186 387.452 33.5714 385.721 33.9742 383.02Z" fill="#FF6584"/>
<path d="M13.3854 367.693C13.4046 365.214 11.9869 363.193 10.2188 363.18C8.4507 363.167 7.00177 365.167 6.98255 367.646C6.96333 370.125 8.3811 372.145 10.1492 372.158C11.9173 372.171 13.3662 370.172 13.3854 367.693Z" fill="#E6E6E6"/>
<path d="M6.403 339.144C6.42225 336.665 5.00454 334.645 3.23645 334.632C1.46836 334.619 0.0194402 336.618 0.000189162 339.097C-0.0190619 341.576 1.39865 343.597 3.16674 343.61C4.93483 343.623 6.38375 341.624 6.403 339.144Z" fill="#3F3D56"/>
<path d="M60.6993 389.388C60.7185 386.909 59.3008 384.888 57.5327 384.875C55.7646 384.862 54.3157 386.861 54.2965 389.341C54.2773 391.82 55.695 393.84 57.4631 393.853C59.2312 393.866 60.6801 391.867 60.6993 389.388Z" fill="#E6E6E6"/>
<path d="M37.8012 400.54C37.8204 398.061 36.4027 396.04 34.6346 396.027C32.8665 396.014 31.4175 398.013 31.3983 400.493C31.3791 402.972 32.7969 404.992 34.565 405.005C36.3331 405.018 37.782 403.019 37.8012 400.54Z" fill="#FF6584"/>
<path d="M69.6756 421.152C69.6949 418.672 68.2771 416.652 66.509 416.639C64.7409 416.626 63.2921 418.625 63.2728 421.104C63.2536 423.584 64.6713 425.604 66.4394 425.617C68.2075 425.63 69.6564 423.631 69.6756 421.152Z" fill="#3F3D56"/>
</g>
<defs>
<clipPath id="clip0_5537_3121">
<rect width="554" height="644" fill="white"/>
</clipPath>
</defs>
</svg>
