<svg width="109" height="61" viewBox="0 0 109 61" fill="none" xmlns="http://www.w3.org/2000/svg">
<mask id="mask0_5527_6180" style="mask-type:luminance" maskUnits="userSpaceOnUse" x="0" y="0" width="109" height="61">
<path d="M108.444 0H0V61H108.444V0Z" fill="white"/>
</mask>
<g mask="url(#mask0_5527_6180)">
<path d="M36.2928 53.8385L35.4731 51L34.6533 53.8385H32L34.1463 55.5933L33.3266 58.4322L35.4731 56.6774L37.6196 58.4322L36.7998 55.5933L38.9463 53.8385H36.2928Z" fill="#FD7E14"/>
<path d="M45.7743 53.8393L44.9379 51.0005L44.1012 53.8393H41.3938L43.584 55.5938L42.7477 58.4323L44.9379 56.6779L47.1281 58.4323L46.2914 55.5938L48.4817 53.8393H45.7743Z" fill="#FD7E14"/>
<path d="M55.165 53.8393L54.3286 51.0005L53.4919 53.8393H50.7845L52.9748 55.5938L52.1381 58.4323L54.3286 56.6779L56.5189 58.4323L55.6822 55.5938L57.8724 53.8393H55.165Z" fill="#FD7E14"/>
<path d="M64.5554 53.8393L63.7187 51.0005L62.882 53.8393H60.1746L62.3649 55.5938L61.5285 58.4323L63.7187 56.6779L65.909 58.4323L65.0722 55.5938L67.2628 53.8393H64.5554Z" fill="#FD7E14"/>
<path d="M74.0035 53.8393L73.1841 51.0005L72.3636 53.8393H69.7108L71.8573 55.5938L71.0379 58.4323L73.1841 56.6779L75.3306 58.4323L74.5102 55.5938L76.6577 53.8393H74.0035Z" fill="#FD7E14"/>
<path d="M8.62544 10.2156C8.14724 7.95753 9.12412 5.85171 10.1417 4.14497C11.2618 2.266 13.1306 0.600555 15.2178 0.00170898C14.8386 2.132 13.7335 3.96956 12.6697 5.69715C11.6132 7.41345 10.2805 9.15174 8.62544 10.2156Z" fill="#0CBC87"/>
<path d="M7.16926 14.5476C7.54252 12.7594 7.53425 10.8018 7.17889 9.12456C6.8664 7.65053 6.41168 5.5668 4.91511 4.86371C3.82728 6.82676 3.38998 9.50005 4.02397 11.5031C4.48238 12.952 5.3068 14.8676 7.01653 15.1641C8.58541 15.571 10.1718 14.6295 11.4247 13.8522C12.8179 12.988 14.1825 11.6131 15.0116 9.97849C13.4907 9.11483 11.7586 9.81572 10.4555 10.4874C9.05084 11.2115 7.76049 12.765 7.16926 14.5476Z" fill="#0CBC87"/>
<path d="M2.33824 19.3725C3.10977 20.6967 4.30363 22.3553 6.04437 22.308C7.62732 22.397 8.9949 21.1817 10.0719 20.1673C11.2318 19.0749 12.2787 17.4773 12.7207 15.7501C11.1016 15.2202 9.55156 16.2019 8.39565 17.1278C7.18856 18.0949 6.26024 19.8647 6.0608 21.6819C6.04586 19.8614 5.60781 17.981 4.90167 16.4662C4.25605 15.0814 3.3564 13.2096 1.75132 12.8354C1.11893 14.9901 1.32071 17.6266 2.33824 19.3725Z" fill="#0CBC87"/>
<path d="M6.55959 29.4398C4.94401 29.7444 3.36809 28.6308 2.34462 27.3209C1.02695 25.6345 0.242942 23.3721 0.402833 21.1073C2.06253 21.1547 3.31953 22.7687 4.24857 23.9892C5.24921 25.3036 6.06902 27.033 6.46233 28.8171C6.28933 27.0391 6.81993 25.1193 7.80484 23.933C8.75552 22.7879 10.0873 21.5399 11.7442 21.7402C11.7085 23.543 10.9052 25.2606 10.0768 26.5469C9.30452 27.7457 8.11485 29.2285 6.55959 29.4398Z" fill="#0CBC87"/>
<path d="M3.57477 35.4305C5.06273 36.52 6.86735 37.599 8.7639 36.7823C10.3198 36.1631 11.309 34.4013 11.9175 32.784C12.562 31.0705 12.9925 29.0946 12.6944 27.2191C10.9847 27.3898 9.56694 28.766 8.81396 30.4459C8.02672 32.2022 7.87574 34.2925 8.48046 36.134C7.58698 34.2396 6.28029 32.7069 4.89616 31.2907C3.63794 30.0033 1.82551 28.6472 0 28.9022C0.347334 31.4412 1.72456 34.0752 3.57477 35.4305Z" fill="#0CBC87"/>
<path d="M12.5967 43.647C14.0609 42.6622 14.6502 40.5902 14.891 38.8145C15.1506 36.8997 15.1395 34.7878 14.4326 32.9714C12.7338 33.5052 11.5678 35.2253 11.1828 37.1092C10.776 39.0998 11.1193 41.2209 12.1088 42.9157C10.7934 41.2182 9.04442 39.8166 7.36828 38.8334C5.74924 37.8842 3.76298 36.7388 1.8186 37.4304C2.75619 40.0046 4.76185 42.4016 6.98476 43.3928C8.70621 44.1604 10.8005 44.9195 12.5967 43.647Z" fill="#0CBC87"/>
<path d="M19.5378 44.3131C19.7527 46.161 19.7466 48.5054 18.4711 49.9281C16.8772 51.7635 14.4104 51.4094 12.5077 51.0054C9.95345 50.4629 7.07815 48.5031 5.53708 45.8933C7.41921 44.7275 9.72104 45.4734 11.5844 46.077L11.6907 46.1115C13.7707 46.7846 15.9871 47.869 17.8408 49.3503C16.3615 47.8466 15.2837 45.6395 15.2309 43.4147C15.1835 41.425 15.9512 39.2961 17.6032 38.3479C18.7565 40.0508 19.2966 42.2374 19.5378 44.3131Z" fill="#0CBC87"/>
<path d="M26.9407 55.1616C27.88 53.1499 26.9493 50.7892 26.2077 49.0443C25.3309 46.9811 24.133 44.879 22.4186 43.3689C20.7723 44.9651 20.9289 47.2488 21.4183 49.2337C22.0003 51.5934 24.0179 53.6054 26.1073 54.7515C23.6875 53.7365 21.0449 53.1272 18.5307 52.9473L18.276 52.9289C16.2561 52.7809 13.6266 52.588 12.0171 54.251C14.4506 56.5784 17.9073 57.9211 20.9538 57.8516C22.9954 57.8049 25.7966 57.5331 26.9407 55.1616Z" fill="#0CBC87"/>
<path d="M98.3251 4.14756C99.3407 5.85529 100.316 7.96192 99.8362 10.2196C98.1817 9.1542 96.8509 7.41482 95.7956 5.69764C94.7332 3.96893 93.6298 2.13071 93.2516 0C95.3385 0.600515 97.2068 2.26749 98.3251 4.14756Z" fill="#0CBC87"/>
<path d="M101.289 14.5536C100.7 12.7698 99.4095 11.2143 98.0058 10.4888C96.7025 9.81604 94.9711 9.11389 93.4501 9.97603C94.2781 11.6113 95.6411 12.9873 97.0336 13.8528C98.2851 14.6309 99.8704 15.5737 101.44 15.1685C103.15 14.8738 103.976 12.9586 104.436 11.5097C105.072 9.50758 104.638 6.83375 103.551 4.86945C102.054 5.57156 101.597 7.65474 101.284 9.12863C100.927 10.8063 100.917 12.7646 101.289 14.5536Z" fill="#0CBC87"/>
<path d="M100.06 17.1318C101.266 18.0993 102.191 19.8682 102.39 21.6842C102.407 19.8645 102.847 17.986 103.554 16.4728C104.2 15.0884 105.102 13.2173 106.707 12.8444C107.338 14.9999 107.134 17.6361 106.114 19.3811C105.343 20.7029 104.15 22.3581 102.412 22.3137C100.827 22.4048 99.4582 21.1865 98.3805 20.1701C97.2215 19.0765 96.1764 17.4781 95.7365 15.7506C97.355 15.2218 98.9044 16.2049 100.06 17.1318Z" fill="#0CBC87"/>
<path d="M101.982 28.8294C102.159 27.05 101.63 25.1261 100.644 23.9375C99.6951 22.7915 98.3646 21.5424 96.7074 21.7413C96.741 23.5441 97.5428 25.2625 98.3707 26.5496C99.1417 27.7485 100.329 29.2313 101.884 29.445C103.5 29.7529 105.078 28.6398 106.103 27.3301C107.422 25.6449 108.207 23.3833 108.05 21.1181C106.39 21.1643 105.132 22.777 104.202 23.9967C103.198 25.312 102.377 27.0433 101.982 28.8294Z" fill="#0CBC87"/>
<path d="M99.6299 30.4496C100.416 32.2068 100.565 34.2977 99.9583 36.1382C100.853 34.2445 102.161 32.7126 103.547 31.2974C104.806 30.011 106.62 28.6567 108.445 28.9132C108.096 31.452 106.716 34.0849 104.865 35.4384C103.377 36.5252 101.575 37.6019 99.6804 36.7889C98.1222 36.1707 97.1327 34.4051 96.5247 32.7851C95.8808 31.071 95.4521 29.0948 95.7524 27.2195C97.4614 27.3917 98.8786 28.7691 99.6299 30.4496Z" fill="#0CBC87"/>
<path d="M96.3266 42.912C97.3151 41.219 97.6597 39.0999 97.2558 37.1103C96.8728 35.2261 95.7074 33.5049 94.0086 32.9697C93.3006 34.7855 93.2881 36.8971 93.5453 38.8122C93.7849 40.5842 94.3705 42.6521 95.826 43.6407C97.6242 44.9234 99.7232 44.1646 101.447 43.3973C103.671 42.4078 105.679 40.0125 106.618 37.439C104.674 36.746 102.688 37.8894 101.068 38.8376C99.3921 39.8183 97.6425 41.2173 96.3266 42.912Z" fill="#0CBC87"/>
<path d="M88.8933 44.3081C88.677 46.1561 88.6808 48.5001 89.956 49.9242C91.5474 51.7609 94.0152 51.4085 95.9181 51.0062C98.4733 50.4657 101.35 48.5079 102.893 45.8999C101.012 44.7327 98.7092 45.4762 96.846 46.0784L96.7385 46.1127C94.6588 46.784 92.4421 47.8661 90.5874 49.3453C92.0676 47.8427 93.1463 45.6376 93.2009 43.4134C93.2504 41.4238 92.4841 39.2946 90.8334 38.3447C89.6781 40.0466 89.1369 42.2327 88.8933 44.3081Z" fill="#0CBC87"/>
<path d="M87.4659 57.8444C85.4248 57.796 82.6235 57.5221 81.4818 55.1496L81.4659 55.117C80.5539 53.1115 81.4808 50.7674 82.2196 49.033C83.098 46.9708 84.298 44.8694 86.0131 43.361C87.6587 44.9585 87.4995 47.2419 87.0087 49.2261C86.4245 51.5858 84.4054 53.5961 82.3148 54.7405C84.7355 53.7276 87.3785 53.1203 89.8927 52.9424L90.1486 52.9241C92.1687 52.778 94.7981 52.5876 96.4058 54.2515C93.9702 56.5766 90.5132 57.9169 87.4659 57.8444Z" fill="#0CBC87"/>
<path d="M34.9157 16.8783C34.9157 17.2974 34.8486 17.673 34.7141 18.0051C34.5796 18.3372 34.3661 18.6179 34.0736 18.8472C33.7889 19.0765 33.4133 19.2545 32.9468 19.381C32.4882 19.5075 31.9267 19.5707 31.2625 19.5707H30.195V21.8599C30.195 22.1525 30.2108 22.3937 30.2425 22.5835C30.282 22.7653 30.3571 22.9077 30.4678 23.0105C30.5864 23.1133 30.7525 23.1844 30.966 23.224C31.1874 23.2556 31.476 23.2714 31.8319 23.2714V23.7221H27.6449V23.2714C27.9217 23.2635 28.143 23.2398 28.3091 23.2002C28.4831 23.1607 28.6175 23.0935 28.7124 22.9986C28.8073 22.9037 28.8705 22.7693 28.9022 22.5953C28.9338 22.4214 28.9496 22.196 28.9496 21.9192V16.392C28.9496 16.1152 28.9338 15.8938 28.9022 15.7277C28.8784 15.5538 28.8231 15.4194 28.7361 15.3245C28.657 15.2217 28.5384 15.1544 28.3803 15.1228C28.2221 15.0833 28.0165 15.0556 27.7635 15.0398V14.5891H31.4879C32.5791 14.5891 33.4212 14.7907 34.0143 15.194C34.6151 15.5973 34.9157 16.1587 34.9157 16.8783ZM30.195 18.9777H31.0372C31.8279 18.9777 32.413 18.8275 32.7926 18.527C33.1801 18.2186 33.3738 17.7164 33.3738 17.0206C33.3738 16.3485 33.2196 15.8701 32.9112 15.5854C32.6107 15.2928 32.1363 15.1466 31.4879 15.1466H30.3967C30.2622 15.1466 30.195 15.2138 30.195 15.3482V18.9777ZM39.2545 20.2112C38.8038 20.3852 38.4202 20.5552 38.104 20.7213C37.7956 20.8873 37.5465 21.0534 37.3568 21.2194C37.167 21.3855 37.0287 21.5516 36.9416 21.7176C36.8627 21.8837 36.823 22.0537 36.823 22.2276C36.823 22.4886 36.9101 22.7021 37.084 22.8681C37.2578 23.0342 37.4872 23.1172 37.7719 23.1172C37.9776 23.1172 38.1674 23.0658 38.3412 22.963C38.5232 22.8602 38.6811 22.7218 38.8157 22.5479C38.9502 22.366 39.057 22.1565 39.1359 21.9192C39.2149 21.6741 39.2545 21.4171 39.2545 21.1483V20.2112ZM39.2545 19.7012V19.2149C39.2545 18.2502 38.8435 17.7679 38.021 17.7679C37.8864 17.7679 37.7719 17.7797 37.677 17.8034C37.5821 17.8272 37.5032 17.8667 37.4398 17.922C37.3764 17.9774 37.3171 18.0565 37.2619 18.1593C37.2144 18.2621 37.167 18.3886 37.1195 18.5388C37.0324 18.7682 36.9457 18.9223 36.8586 19.0014C36.7796 19.0726 36.661 19.1082 36.5028 19.1082C36.1073 19.1082 35.9097 18.9105 35.9097 18.5151C35.9097 18.1356 36.1113 17.843 36.5146 17.6374C36.9179 17.4239 37.4913 17.3171 38.2345 17.3171C39.0251 17.3171 39.5866 17.4595 39.9188 17.7441C40.2509 18.0209 40.4169 18.4953 40.4169 19.1675V21.8244C40.4169 22.7258 40.5948 23.1765 40.9507 23.1765C41.0615 23.1765 41.1682 23.1647 41.2709 23.1409C41.3736 23.1093 41.4607 23.0342 41.5319 22.9156L41.6979 23.2002C41.603 23.3821 41.4292 23.5363 41.176 23.6628C40.9229 23.7814 40.6582 23.8407 40.3813 23.8407C40.0333 23.8407 39.7724 23.73 39.5985 23.5086C39.4325 23.2872 39.3494 22.9749 39.3494 22.5716H39.2901C39.0844 22.9591 38.7997 23.2674 38.4361 23.4968C38.0725 23.7182 37.6692 23.8289 37.2263 23.8289C36.7281 23.8289 36.3367 23.7024 36.052 23.4493C35.7674 23.1963 35.625 22.8563 35.625 22.4293C35.625 22.2395 35.6566 22.0576 35.7199 21.8837C35.7911 21.7097 35.9019 21.5437 36.052 21.3855C36.2022 21.2273 36.4001 21.0731 36.6451 20.9229C36.8901 20.7648 37.1907 20.6066 37.5465 20.4485L39.2545 19.7012ZM42.1571 18.183V17.7441C42.5763 17.499 42.9044 17.2539 43.1416 17.0087C43.3788 16.7636 43.5608 16.471 43.6872 16.131H44.0312V17.6255H45.6206V18.183H44.0312V21.7888C44.0312 22.0655 44.043 22.2988 44.0668 22.4886C44.0983 22.6784 44.1457 22.8326 44.2091 22.9512C44.2725 23.0619 44.3555 23.1409 44.4582 23.1884C44.5609 23.2358 44.6913 23.2596 44.8496 23.2596C45.0472 23.2596 45.2132 23.22 45.3478 23.1409C45.4901 23.0539 45.6284 22.9116 45.7629 22.7139L46.0594 22.9393C45.9486 23.2319 45.7551 23.4572 45.4782 23.6154C45.2095 23.7656 44.8733 23.8407 44.47 23.8407C43.9481 23.8407 43.5489 23.7182 43.2721 23.473C43.0033 23.22 42.8688 22.8602 42.8688 22.3937V18.183H42.1571ZM48.6326 21.8362C48.6326 22.1604 48.6404 22.4174 48.6563 22.6072C48.6719 22.797 48.7116 22.9433 48.7749 23.0461C48.8461 23.1409 48.9447 23.2042 49.0715 23.2358C49.1979 23.2674 49.3758 23.2912 49.6052 23.307V23.7221H46.4502V23.307C46.6793 23.2912 46.8612 23.2674 46.9958 23.2358C47.13 23.2042 47.233 23.1409 47.3042 23.0461C47.3753 22.9512 47.4187 22.8167 47.4346 22.6428C47.4584 22.4609 47.4702 22.2197 47.4702 21.9192V16.9494C47.4702 16.4829 47.4621 16.1113 47.4465 15.8345C47.4384 15.5577 47.4187 15.3482 47.3872 15.2059C47.3713 15.111 47.3435 15.0358 47.3042 14.9805C47.2723 14.9172 47.2211 14.8698 47.15 14.8382C47.0788 14.7986 46.9839 14.771 46.8653 14.7551C46.7467 14.7393 46.6003 14.7314 46.4264 14.7314V14.3281L48.6089 13.8774V18.3965H48.6563C48.7749 18.2383 48.921 18.096 49.0952 17.9695C49.2768 17.8351 49.4707 17.7204 49.6764 17.6255C49.8818 17.5306 50.0953 17.4555 50.3169 17.4002C50.546 17.3448 50.7676 17.3171 50.9811 17.3171C51.3447 17.3171 51.6768 17.3804 51.9774 17.5069C52.2858 17.6334 52.5231 17.8034 52.6891 18.0169C52.8233 18.1988 52.9223 18.44 52.9856 18.7405C53.0487 19.033 53.0805 19.4324 53.0805 19.9384V21.8362C53.0805 22.1604 53.0883 22.4174 53.1042 22.6072C53.1198 22.7891 53.1595 22.9314 53.2229 23.0342C53.294 23.137 53.3926 23.2042 53.5194 23.2358C53.6458 23.2674 53.8237 23.2912 54.0531 23.307V23.7221H50.9099V23.307C51.1312 23.2991 51.3092 23.2793 51.4437 23.2477C51.5779 23.2081 51.6768 23.1409 51.7402 23.0461C51.8114 22.9512 51.8548 22.8167 51.8707 22.6428C51.8944 22.4609 51.9063 22.2197 51.9063 21.9192V20.4247C51.9063 19.5391 51.8033 18.9105 51.5979 18.5388C51.3922 18.1593 51.0482 17.9695 50.566 17.9695C50.1942 17.9695 49.8543 18.0644 49.5459 18.2542C49.2453 18.4439 49.0081 18.7049 48.8342 19.037C48.7946 19.124 48.759 19.207 48.7275 19.2861C48.7038 19.3572 48.6838 19.4403 48.6682 19.5352C48.6523 19.6301 48.6404 19.7408 48.6326 19.8673C48.6326 19.9859 48.6326 20.1361 48.6326 20.318V21.8362ZM57.3973 23.8407H56.9584L55.4165 18.9065C55.3453 18.6851 55.2779 18.5072 55.2148 18.3728C55.1515 18.2383 55.0762 18.1316 54.9895 18.0525C54.9024 17.9735 54.7997 17.922 54.6811 17.8983C54.5625 17.8667 54.4161 17.8509 54.2422 17.8509V17.4357H57.3854V17.8509C57.077 17.8509 56.8595 17.8865 56.7331 17.9576C56.6063 18.0288 56.5433 18.1514 56.5433 18.3253C56.5433 18.4044 56.5552 18.4993 56.5789 18.61C56.6026 18.7128 56.6341 18.8433 56.6738 19.0014L57.4803 21.8362H57.5278L59.2713 17.4357H59.639L61.2166 21.8362H61.264L61.9757 19.9147C62.0706 19.6538 62.1495 19.4363 62.2129 19.2624C62.2759 19.0805 62.3234 18.9302 62.3552 18.8116C62.3945 18.6851 62.4223 18.5823 62.4383 18.5032C62.4539 18.4242 62.462 18.349 62.462 18.2779C62.462 18.1039 62.4105 17.9893 62.3078 17.9339C62.2048 17.8786 61.9913 17.8509 61.6673 17.8509V17.4357H64.0395V17.8509C63.9209 17.8509 63.8179 17.8706 63.7311 17.9102C63.6518 17.9418 63.5688 18.009 63.482 18.1118C63.4027 18.2146 63.3197 18.3609 63.233 18.5507C63.1459 18.7405 63.0391 18.9896 62.9127 19.2979L61.0742 23.8407H60.6354L59.1883 19.464H59.1409L57.3973 23.8407ZM68.2241 20.2112C67.7734 20.3852 67.3898 20.5552 67.0736 20.7213C66.7652 20.8873 66.5161 21.0534 66.3263 21.2194C66.1366 21.3855 65.998 21.5516 65.9112 21.7176C65.8319 21.8837 65.7926 22.0537 65.7926 22.2276C65.7926 22.4886 65.8793 22.7021 66.0535 22.8681C66.2274 23.0342 66.4568 23.1172 66.7415 23.1172C66.9468 23.1172 67.1366 23.0658 67.3108 22.963C67.4925 22.8602 67.6507 22.7218 67.7853 22.5479C67.9195 22.366 68.0262 22.1565 68.1055 21.9192C68.1845 21.6741 68.2241 21.4171 68.2241 21.1483V20.2112ZM68.2241 19.7012V19.2149C68.2241 18.2502 67.8127 17.7679 66.9906 17.7679C66.856 17.7679 66.7415 17.7797 66.6466 17.8034C66.5517 17.8272 66.4724 17.8667 66.4094 17.922C66.346 17.9774 66.2867 18.0565 66.2314 18.1593C66.184 18.2621 66.1366 18.3886 66.0891 18.5388C66.002 18.7682 65.9149 18.9223 65.8282 19.0014C65.7489 19.0726 65.6303 19.1082 65.4723 19.1082C65.0769 19.1082 64.8793 18.9105 64.8793 18.5151C64.8793 18.1356 65.0809 17.843 65.4842 17.6374C65.8875 17.4239 66.4605 17.3171 67.2041 17.3171C67.9947 17.3171 68.5562 17.4595 68.8883 17.7441C69.2204 18.0209 69.3865 18.4953 69.3865 19.1675V21.8244C69.3865 22.7258 69.5644 23.1765 69.9203 23.1765C70.0307 23.1765 70.1375 23.1647 70.2405 23.1409C70.3432 23.1093 70.4303 23.0342 70.5014 22.9156L70.6675 23.2002C70.5726 23.3821 70.3984 23.5363 70.1456 23.6628C69.8925 23.7814 69.6275 23.8407 69.3509 23.8407C69.0029 23.8407 68.7419 23.73 68.5681 23.5086C68.402 23.2872 68.319 22.9749 68.319 22.5716H68.2597C68.054 22.9591 67.7693 23.2674 67.4057 23.4968C67.0417 23.7182 66.6385 23.8289 66.1959 23.8289C65.6977 23.8289 65.3063 23.7024 65.0216 23.4493C64.737 23.1963 64.5946 22.8563 64.5946 22.4293C64.5946 22.2395 64.6261 22.0576 64.6895 21.8837C64.7607 21.7097 64.8712 21.5437 65.0216 21.3855C65.1717 21.2273 65.3693 21.0731 65.6147 20.9229C65.8597 20.7648 66.1603 20.6066 66.5161 20.4485L68.2241 19.7012ZM73.73 25.5843C73.3664 26.3988 72.8011 26.806 72.0339 26.806C71.5357 26.806 71.2867 26.6202 71.2867 26.2486C71.2867 26.0509 71.3541 25.9046 71.4883 25.8097C71.6306 25.7227 71.8878 25.6476 72.2593 25.5843C72.4253 25.5606 72.5677 25.525 72.6863 25.4776C72.8049 25.438 72.9116 25.3827 73.0065 25.3115C73.1014 25.2483 73.1844 25.1652 73.2556 25.0624C73.3349 24.9597 73.4098 24.8331 73.481 24.6829L73.8961 23.8526L71.6188 18.9065C71.5161 18.6851 71.4253 18.5111 71.346 18.3846C71.2748 18.2502 71.1958 18.1474 71.1087 18.0762C71.0298 17.9972 70.939 17.9458 70.8359 17.922C70.7332 17.8904 70.6028 17.8667 70.4445 17.8509V17.4357H73.5877V17.8509C73.058 17.8509 72.793 17.9814 72.793 18.2423C72.793 18.3451 72.8249 18.5072 72.8879 18.7286C72.9513 18.95 73.0302 19.1754 73.1251 19.4047L74.4298 22.5597H74.4892L75.5685 19.891C75.6715 19.6301 75.7546 19.4166 75.8176 19.2505C75.8888 19.0844 75.9403 18.95 75.9718 18.8472C76.0114 18.7365 76.0352 18.6456 76.043 18.5744C76.0589 18.5032 76.0667 18.436 76.0667 18.3728C76.0667 18.1672 76.0074 18.0288 75.8888 17.9576C75.7783 17.8865 75.5607 17.8509 75.2364 17.8509V17.4357H77.8458V17.8509C77.6957 17.8509 77.5693 17.8706 77.4663 17.9102C77.3636 17.9497 77.2569 18.0407 77.146 18.183C77.0434 18.3174 76.9248 18.5151 76.7902 18.7761C76.6638 19.037 76.5055 19.3889 76.3158 19.8317L73.73 25.5843ZM32.8994 33.9684H29.7324C29.598 34.2928 29.4834 34.5812 29.3885 34.8343C29.2936 35.0793 29.2145 35.2928 29.1512 35.4748C29.0959 35.6568 29.0564 35.811 29.0326 35.9374C29.0089 36.0638 28.997 36.1668 28.997 36.2458C28.997 36.4671 29.0682 36.6213 29.2105 36.7084C29.3529 36.7873 29.5901 36.827 29.9222 36.827V37.2777H27.04V36.827C27.2218 36.8032 27.376 36.7717 27.5025 36.7321C27.637 36.6924 27.7516 36.6372 27.8465 36.566C27.9493 36.4949 28.0363 36.404 28.1075 36.2932C28.1865 36.1746 28.2617 36.0323 28.3328 35.8662L31.4167 28.1446H31.9267L34.6192 34.8343C34.8012 35.2772 34.9591 35.6331 35.0937 35.9018C35.2282 36.1627 35.3587 36.3603 35.4851 36.4949C35.6115 36.6294 35.746 36.7161 35.8884 36.7558C36.0385 36.7954 36.2164 36.8151 36.4221 36.8151V37.2777H32.5554V36.8151C32.9745 36.8151 33.2631 36.7755 33.4212 36.6965C33.5794 36.6175 33.6585 36.4871 33.6585 36.3051C33.6585 36.2261 33.6545 36.1549 33.6466 36.0916C33.6387 36.0204 33.6229 35.9452 33.5992 35.8662C33.5833 35.7873 33.5557 35.7002 33.5161 35.6053C33.4845 35.5026 33.441 35.384 33.3857 35.2494L32.8994 33.9684ZM29.9697 33.3754H32.674L31.3574 29.8764L29.9697 33.3754ZM42.0897 36.2932C41.805 36.6413 41.4373 36.9141 40.9866 37.1116C40.5359 37.3014 40.0496 37.3963 39.5277 37.3963C39.1088 37.3963 38.7211 37.3211 38.3653 37.1709C38.0176 37.0127 37.717 36.7955 37.4638 36.5186C37.211 36.2339 37.0131 35.894 36.8708 35.4985C36.7366 35.103 36.6692 34.6642 36.6692 34.1819C36.6692 33.6759 36.7485 33.2212 36.9064 32.8179C37.0646 32.4067 37.2859 32.0588 37.5706 31.7741C37.8634 31.4816 38.2111 31.2601 38.6144 31.1099C39.0258 30.9518 39.4765 30.8727 39.9665 30.8727C40.2749 30.8727 40.5559 30.9004 40.8087 30.9557C41.0618 31.0032 41.2794 31.0743 41.461 31.1692C41.6508 31.2562 41.7972 31.3669 41.8999 31.5013C42.0029 31.6278 42.0541 31.7662 42.0541 31.9165C42.0541 32.0746 42.0029 32.1972 41.8999 32.2842C41.7972 32.3712 41.6549 32.4146 41.4729 32.4146C41.3306 32.4146 41.212 32.3869 41.1171 32.3316C41.0222 32.2683 40.8998 32.1339 40.7494 31.9283C40.5915 31.7464 40.4373 31.6199 40.2868 31.5488C40.1445 31.4697 39.9587 31.4302 39.7293 31.4302C39.1681 31.4302 38.7411 31.6476 38.4483 32.0825C38.1637 32.5174 38.0213 33.1579 38.0213 34.004C38.0213 34.9133 38.1796 35.6053 38.4958 36.0797C38.8201 36.5464 39.2905 36.7795 39.9072 36.7795C40.2393 36.7795 40.5518 36.7161 40.8443 36.5897C41.1371 36.4552 41.4336 36.2417 41.7338 35.9492L42.0897 36.2932ZM46.5867 33.7668C46.136 33.9406 45.7524 34.1108 45.4362 34.2768C45.1278 34.4429 44.8787 34.6089 44.689 34.775C44.4992 34.9411 44.3609 35.1071 44.2738 35.2732C44.1949 35.4392 44.1552 35.6093 44.1552 35.7832C44.1552 36.0441 44.2423 36.2576 44.4162 36.4237C44.59 36.5897 44.8194 36.6728 45.1041 36.6728C45.3098 36.6728 45.4996 36.6213 45.6734 36.5186C45.8554 36.4159 46.0133 36.2773 46.1479 36.1034C46.2824 35.9215 46.3892 35.712 46.4681 35.4748C46.5471 35.2298 46.5867 34.9726 46.5867 34.7038V33.7668ZM46.5867 33.2568V32.7705C46.5867 31.8058 46.1757 31.3234 45.3532 31.3234C45.2186 31.3234 45.1041 31.3353 45.0092 31.359C44.9143 31.3827 44.8354 31.4223 44.772 31.4776C44.7086 31.5329 44.6493 31.612 44.5941 31.7148C44.5466 31.8176 44.4992 31.9442 44.4517 32.0944C44.3646 32.3237 44.2779 32.4779 44.1908 32.557C44.1118 32.6281 43.9932 32.6637 43.835 32.6637C43.4395 32.6637 43.2419 32.466 43.2419 32.0707C43.2419 31.6911 43.4435 31.3985 43.8468 31.1929C44.2501 30.9794 44.8235 30.8727 45.5667 30.8727C46.3573 30.8727 46.9188 31.015 47.251 31.2997C47.5831 31.5765 47.7491 32.0509 47.7491 32.723V35.3799C47.7491 36.2814 47.927 36.7321 48.2829 36.7321C48.3937 36.7321 48.5004 36.7202 48.6031 36.6965C48.7058 36.665 48.7929 36.5897 48.8641 36.4711L49.0301 36.7558C48.9352 36.9378 48.7614 37.092 48.5082 37.2184C48.2551 37.337 47.9904 37.3963 47.7135 37.3963C47.3655 37.3963 47.1046 37.2855 46.9307 37.0642C46.7647 36.8429 46.6816 36.5304 46.6816 36.1272H46.6223C46.4166 36.5145 46.1319 36.8229 45.7683 37.0523C45.4047 37.2736 45.0014 37.3844 44.5585 37.3844C44.0603 37.3844 43.6689 37.258 43.3842 37.0049C43.0996 36.7517 42.9572 36.4118 42.9572 35.9848C42.9572 35.795 42.9888 35.6131 43.0521 35.4392C43.1233 35.2654 43.2341 35.0993 43.3842 34.9411C43.5344 34.7828 43.7323 34.6286 43.9773 34.4785C44.2223 34.3202 44.5229 34.1623 44.8787 34.004L46.5867 33.2568ZM54.7557 36.2814H54.7082C54.4235 36.6846 54.1189 36.9734 53.7949 37.1472C53.4784 37.3133 53.1029 37.3963 52.6681 37.3963C52.2174 37.3963 51.8022 37.3173 51.4227 37.1591C51.0509 36.993 50.7266 36.7677 50.4501 36.483C50.181 36.1905 49.9675 35.8425 49.8096 35.4392C49.6591 35.0359 49.5842 34.5971 49.5842 34.1226C49.5842 33.6561 49.6591 33.2252 49.8096 32.8298C49.9675 32.4265 50.181 32.0825 50.4501 31.7979C50.7266 31.5053 51.055 31.2799 51.4345 31.1218C51.8141 30.9557 52.2252 30.8727 52.6681 30.8727C53.0477 30.8727 53.3835 30.936 53.6763 31.0625C53.9765 31.189 54.2653 31.3906 54.5422 31.6674V30.4576C54.5422 30.0068 54.534 29.6312 54.5184 29.3307C54.5103 29.0303 54.4947 28.8247 54.471 28.714C54.4313 28.54 54.3205 28.4174 54.1389 28.3463C53.9569 28.2751 53.6604 28.2395 53.2493 28.2395V27.8837L55.6808 27.433V34.2768C55.6808 34.8224 55.6846 35.2732 55.6927 35.629C55.7005 35.977 55.7242 36.2261 55.7638 36.3762C55.7876 36.4711 55.815 36.5501 55.8469 36.6135C55.8862 36.6768 55.9377 36.728 56.0011 36.7677C56.0722 36.7992 56.1631 36.8229 56.2739 36.8388C56.3925 36.8548 56.5426 36.8625 56.7246 36.8625V37.2658L54.7557 37.3963V36.2814ZM54.5184 33.66C54.5184 33.2489 54.4947 32.9365 54.4473 32.723C54.4076 32.5095 54.3246 32.3237 54.1982 32.1655C54.0162 31.9283 53.783 31.7504 53.4984 31.6318C53.2215 31.5053 52.9446 31.442 52.6681 31.442C52.0988 31.442 51.6636 31.6792 51.3634 32.1537C51.0706 32.6202 50.9245 33.2568 50.9245 34.0633C50.9245 34.4825 50.9601 34.8621 51.0313 35.202C51.1102 35.5419 51.221 35.8347 51.3634 36.0797C51.5135 36.3169 51.6955 36.5026 51.909 36.6372C52.1303 36.7636 52.3834 36.827 52.6681 36.827C52.8104 36.827 52.9528 36.811 53.0951 36.7795C53.2452 36.748 53.3876 36.7006 53.5221 36.6372C53.6644 36.566 53.7949 36.4871 53.9135 36.4C54.0321 36.3051 54.1307 36.1983 54.21 36.0797C54.3205 35.9059 54.3998 35.6961 54.4473 35.4511C54.4947 35.2061 54.5184 34.8699 54.5184 34.4429V33.66ZM63.2103 36.1746C62.5382 36.989 61.7039 37.3963 60.7076 37.3963C60.2409 37.3963 59.818 37.3211 59.4384 37.1709C59.0589 37.0127 58.7308 36.7955 58.4539 36.5186C58.1852 36.2339 57.9754 35.8977 57.8253 35.5104C57.6752 35.1149 57.5999 34.6801 57.5999 34.2057C57.5999 33.7233 57.6789 33.2765 57.8372 32.8654C57.9954 32.4542 58.2167 32.1023 58.5014 31.8097C58.7939 31.5172 59.1378 31.2878 59.5333 31.1218C59.9366 30.9557 60.3754 30.8727 60.8499 30.8727C61.6168 30.8727 62.2099 31.0822 62.6291 31.5013C63.0483 31.9125 63.2577 32.5056 63.2577 33.2805C63.2577 33.3912 63.234 33.4584 63.1865 33.4821C63.1469 33.5059 63.0483 33.5177 62.89 33.5177H58.9877C58.9718 33.581 58.9599 33.66 58.9521 33.7549C58.9443 33.8419 58.9403 33.9407 58.9403 34.0515C58.9403 34.4625 58.9877 34.8384 59.0826 35.1783C59.1853 35.5104 59.3276 35.795 59.5096 36.0323C59.6994 36.2695 59.9207 36.4552 60.1738 36.5897C60.4348 36.7161 60.7235 36.7795 61.0397 36.7795C61.3718 36.7795 61.6802 36.7084 61.9648 36.566C62.2495 36.4159 62.542 36.1746 62.8426 35.8425L63.2103 36.1746ZM61.2532 32.9721C61.4114 32.9721 61.5378 32.9681 61.6327 32.9602C61.7276 32.9523 61.7988 32.9365 61.8462 32.9128C61.8937 32.8891 61.9252 32.8575 61.9411 32.8179C61.957 32.7705 61.9648 32.7112 61.9648 32.64C61.9648 32.2763 61.8462 31.9876 61.609 31.7741C61.3796 31.5527 61.0634 31.442 60.6601 31.442C59.8061 31.442 59.2764 31.952 59.0707 32.9721H61.2532ZM66.4392 35.3799C66.4392 35.712 66.4473 35.973 66.4629 36.1627C66.4788 36.3525 66.5185 36.4989 66.5815 36.6016C66.6527 36.6965 66.7516 36.7599 66.8781 36.7914C67.0048 36.8229 67.1827 36.8466 67.4118 36.8625V37.2777H64.2567V36.8625C64.4862 36.8466 64.6682 36.8229 64.8024 36.7914C64.9369 36.7599 65.0396 36.6965 65.1107 36.6016C65.1819 36.5067 65.2256 36.3722 65.2412 36.1983C65.2649 36.0163 65.2768 35.7754 65.2768 35.4748V33.9566C65.2768 33.5059 65.269 33.1303 65.2531 32.8298C65.2453 32.5293 65.2256 32.3237 65.1938 32.213C65.17 32.1102 65.1426 32.0311 65.1107 31.9758C65.0792 31.9125 65.0277 31.8651 64.9565 31.8334C64.8854 31.7939 64.7905 31.7702 64.6719 31.7623C64.5614 31.7464 64.415 31.7386 64.233 31.7386V31.3234L66.1664 30.8727L66.3206 32.0588H66.3799C66.7357 31.6555 67.1075 31.359 67.4948 31.1692C67.8903 30.9715 68.3251 30.8727 68.7995 30.8727C69.2977 30.8727 69.7169 30.9755 70.0568 31.1811C70.3971 31.3788 70.6343 31.6674 70.7685 32.0469H70.8159C71.1087 31.6753 71.4646 31.3867 71.8834 31.1811C72.3026 30.9755 72.7493 30.8727 73.2237 30.8727C73.5955 30.8727 73.9317 30.936 74.2319 31.0625C74.5403 31.1811 74.7738 31.3471 74.9317 31.5606C75.0741 31.7425 75.173 31.9837 75.2283 32.2842C75.2916 32.5767 75.3232 32.98 75.3232 33.494V35.3799C75.3232 35.7042 75.3313 35.9611 75.3469 36.1509C75.3706 36.3407 75.4143 36.4871 75.4774 36.5897C75.5407 36.6924 75.6356 36.7599 75.762 36.7914C75.8966 36.8229 76.0785 36.8466 76.3076 36.8625V37.2777H73.1526V36.8625C73.3742 36.8548 73.5521 36.8348 73.6863 36.8032C73.8209 36.7636 73.9235 36.6965 73.9947 36.6016C74.0659 36.4989 74.1096 36.3603 74.1252 36.1865C74.1489 36.0126 74.1608 35.7754 74.1608 35.4748V33.9803C74.1608 33.5296 74.137 33.15 74.0896 32.8416C74.0422 32.5253 73.9632 32.2723 73.8524 32.0825C73.7419 31.8848 73.5955 31.7425 73.4135 31.6555C73.2397 31.5685 73.0262 31.525 72.773 31.525C72.4253 31.525 72.0969 31.6239 71.7885 31.8216C71.4883 32.0114 71.2511 32.2683 71.0769 32.5926C71.0376 32.6716 71.002 32.7507 70.9701 32.8298C70.9464 32.9009 70.9268 32.984 70.9108 33.0789C70.8952 33.1658 70.8834 33.2726 70.8752 33.3991C70.8752 33.5256 70.8752 33.6838 70.8752 33.8735V35.3799C70.8752 35.7042 70.8834 35.9611 70.899 36.1509C70.9149 36.3407 70.9545 36.4871 71.0176 36.5897C71.0887 36.6924 71.1918 36.7599 71.326 36.7914C71.4605 36.8229 71.6425 36.8466 71.8716 36.8625V37.2777H68.7165V36.8625C68.9382 36.8466 69.1161 36.8229 69.2503 36.7914C69.3848 36.7599 69.4838 36.6965 69.5468 36.6016C69.618 36.5067 69.6617 36.3722 69.6773 36.1983C69.701 36.0163 69.7129 35.7754 69.7129 35.4748V33.9803C69.7129 33.5217 69.6891 33.1382 69.6417 32.8298C69.5942 32.5135 69.5153 32.2604 69.4045 32.0707C69.3018 31.873 69.1635 31.7346 68.9893 31.6555C68.8155 31.5685 68.602 31.525 68.3488 31.525C67.993 31.525 67.6572 31.6239 67.3406 31.8216C67.0322 32.0114 66.7991 32.2683 66.6408 32.5926C66.6015 32.6716 66.5659 32.7507 66.5341 32.8298C66.5104 32.9009 66.4907 32.984 66.4748 33.0789C66.4592 33.1658 66.4473 33.2726 66.4392 33.3991C66.4392 33.5256 66.4392 33.6838 66.4392 33.8735V35.3799ZM79.6606 39.1399C79.297 39.9542 78.7317 40.3616 77.9645 40.3616C77.4663 40.3616 77.2172 40.1759 77.2172 39.8041C77.2172 39.6065 77.2846 39.4601 77.4188 39.3652C77.5612 39.2782 77.8184 39.2033 78.1898 39.1399C78.3559 39.1162 78.4982 39.0806 78.6168 39.0331C78.7354 38.9935 78.8422 38.9382 78.9371 38.8671C79.032 38.8037 79.115 38.7207 79.1862 38.618C79.2655 38.5153 79.3403 38.3886 79.4115 38.2384L79.8267 37.4082L77.5493 32.4621C77.4466 32.2407 77.3558 32.0667 77.2765 31.9402C77.2053 31.8058 77.1264 31.703 77.0393 31.6318C76.9603 31.5527 76.8695 31.5013 76.7665 31.4776C76.6638 31.446 76.5333 31.4223 76.3751 31.4064V30.9913H79.5183V31.4064C78.9886 31.4064 78.7236 31.5369 78.7236 31.7979C78.7236 31.9006 78.7554 32.0628 78.8185 32.2842C78.8818 32.5056 78.9608 32.7309 79.0557 32.9602L80.3604 36.1153H80.4197L81.4991 33.4466C81.6021 33.1856 81.6851 32.9721 81.7482 32.8061C81.8193 32.64 81.8708 32.5056 81.9023 32.4028C81.942 32.2921 81.9657 32.2011 81.9735 32.13C81.9894 32.0588 81.9972 31.9916 81.9972 31.9283C81.9972 31.7227 81.9379 31.5844 81.8193 31.5132C81.7088 31.442 81.4913 31.4064 81.167 31.4064V30.9913H83.7764V31.4064C83.6263 31.4064 83.4999 31.4262 83.3968 31.4657C83.2942 31.5053 83.1874 31.5962 83.0766 31.7386C82.9739 31.873 82.8553 32.0707 82.7208 32.3316C82.5944 32.5925 82.4361 32.9444 82.2463 33.3872L79.6606 39.1399Z" fill="#0CBC87"/>
</g>
</svg>
